%
M48
M72
T01C0.03200
T02C0.03600
T03C0.03937
T04C0.04000
T05C0.15748
%
T01
X58680Y30462
X66180Y35462
X72368Y35462
X58680Y40462
X72392Y46120
X72647Y59288
X58769Y64481
X66269Y69481
X72757Y69420
X58769Y74481
X72680Y79560
X72870Y93233
X59092Y97826
X66592Y102826
X72957Y102831
X59092Y107826
X72877Y112866
X72642Y126279
X58501Y130638
X66001Y135638
X72404Y135689
X58501Y140638
X72341Y145288
X72848Y159594
X58894Y164839
X66394Y169839
X72887Y169884
X58894Y174839
X72966Y179900
X102966Y179900
X112455Y174829
X119955Y169829
X126814Y169950
X112455Y164829
X102887Y169884
X102848Y159594
X126899Y160018
X126607Y146123
X112725Y141560
X120225Y136560
X126737Y136448
X112725Y131560
X102404Y135689
X102642Y126279
X126751Y126732
X126470Y112307
X112479Y107340
X119979Y102340
X126558Y102424
X112479Y97340
X102870Y93233
X102957Y102831
X102877Y112866
X126618Y92936
X126625Y78911
X112692Y73981
X120192Y68981
X126665Y69054
X112692Y63981
X102647Y59288
X102757Y69420
X102680Y79560
X126739Y59307
X102392Y46120
X112965Y39913
X120465Y34913
X127267Y34890
X112965Y29913
X102379Y24643
X102368Y35462
X127217Y45168
X157217Y45168
X157267Y34890
X157258Y24576
X127258Y24576
X72379Y24643
X156739Y59307
X156665Y69054
X156625Y78911
X176459Y74593
X176459Y84593
X176459Y94593
X176459Y104593
X176459Y114593
X176459Y124593
X176459Y134593
X176459Y144593
X176459Y154593
X156899Y160018
X156814Y169950
X156809Y179867
X126809Y179867
X102341Y145288
X156607Y146123
X156737Y136448
X156751Y126732
X156470Y112307
X156558Y102424
X156618Y92936
X206459Y94593
X221965Y93762
X235330Y86558
X247794Y97090
X260910Y106315
X268910Y106315
X280636Y112352
X290636Y112352
X300636Y112352
X310636Y112352
X290582Y100560
X300618Y100109
X311680Y100119
X324190Y90272
X344190Y90272
X350643Y72834
X320643Y72834
X311680Y70119
X300618Y70109
X290582Y70560
X286751Y48263
X264565Y36513
X264565Y28513
X286751Y28263
X221965Y63762
X235330Y66558
X215775Y54279
X195775Y54279
X197274Y38182
X197274Y30182
X206459Y74593
X206459Y84593
X206459Y104593
X206459Y114593
X206459Y124593
X206459Y134593
X219269Y139118
X229452Y139453
X244665Y146887
X257164Y146693
X276144Y153446
X280636Y142352
X290636Y142352
X300636Y142352
X310636Y142352
X306144Y153446
X312553Y164756
X314069Y175529
X299570Y176822
X282553Y164756
X269570Y176822
X257164Y176693
X244665Y166887
X229452Y169453
X219269Y169118
X206459Y154593
X206459Y144593
X247794Y127090
X260069Y130474
X268069Y130474
X342623Y154149
X342623Y162149
X344069Y175529
T02
X33450Y123807
X23450Y123807
X23450Y113807
X33450Y113807
X33450Y103807
X23450Y103807
X23450Y93807
X33450Y93807
X33450Y83807
X23450Y83807
T03
X170032Y32674
X180032Y32674
X227808Y107901
X227808Y117901
X227808Y127901
X363339Y98377
X363339Y88377
X361683Y62869
X361683Y52869
T04
X322634Y37591
X308491Y51733
X265268Y50276
X240702Y32677
X230702Y32677
X220702Y32677
X255268Y90276
X275268Y90276
X321405Y123631
X361405Y113631
X361405Y133631
T05
X21798Y27249
X21798Y180792
X364318Y180792
X364318Y27249
M30
