G75*
%MOIN*%
%OFA0B0*%
%FSLAX25Y25*%
%IPPOS*%
%LPD*%
%AMOC8*
5,1,8,0,0,1.08239X$1,22.5*
%
%ADD10C,0.16548*%
%ADD11OC8,0.07100*%
%ADD12OC8,0.06000*%
%ADD13C,0.06000*%
%ADD14C,0.10800*%
%ADD15C,0.02160*%
%ADD16C,0.06000*%
%ADD17C,0.06800*%
%ADD18OC8,0.07800*%
%ADD19OC8,0.06400*%
%ADD20C,0.06737*%
D10*
X0021798Y0027249D03*
X0021798Y0180792D03*
X0364318Y0180792D03*
X0364318Y0027249D03*
D11*
X0286751Y0028263D03*
X0286751Y0048263D03*
X0235330Y0066558D03*
X0215775Y0054279D03*
X0195775Y0054279D03*
X0235330Y0086558D03*
X0324190Y0090272D03*
X0344190Y0090272D03*
X0244665Y0146887D03*
X0244665Y0166887D03*
D12*
X0229452Y0169453D03*
X0219269Y0169118D03*
X0257164Y0176693D03*
X0276144Y0153446D03*
X0257164Y0146693D03*
X0229452Y0139453D03*
X0219269Y0139118D03*
X0247794Y0127090D03*
X0260069Y0130474D03*
X0260910Y0106315D03*
X0247794Y0097090D03*
X0221965Y0093762D03*
X0221965Y0063762D03*
X0197274Y0030182D03*
X0157267Y0034890D03*
X0157217Y0045168D03*
X0156739Y0059307D03*
X0156665Y0069054D03*
X0156625Y0078911D03*
X0156618Y0092936D03*
X0156558Y0102424D03*
X0156470Y0112307D03*
X0156751Y0126732D03*
X0156737Y0136448D03*
X0156607Y0146123D03*
X0156899Y0160018D03*
X0156814Y0169950D03*
X0156809Y0179867D03*
X0126809Y0179867D03*
X0112455Y0174829D03*
X0119955Y0169829D03*
X0126814Y0169950D03*
X0112455Y0164829D03*
X0102887Y0169884D03*
X0102966Y0179900D03*
X0072966Y0179900D03*
X0058894Y0174839D03*
X0066394Y0169839D03*
X0072887Y0169884D03*
X0058894Y0164839D03*
X0072848Y0159594D03*
X0072341Y0145288D03*
X0058501Y0140638D03*
X0066001Y0135638D03*
X0072404Y0135689D03*
X0058501Y0130638D03*
X0072642Y0126279D03*
X0072877Y0112866D03*
X0059092Y0107826D03*
X0066592Y0102826D03*
X0072957Y0102831D03*
X0059092Y0097826D03*
X0072870Y0093233D03*
X0072680Y0079560D03*
X0058769Y0074481D03*
X0066269Y0069481D03*
X0072757Y0069420D03*
X0058769Y0064481D03*
X0072647Y0059288D03*
X0072392Y0046120D03*
X0058680Y0040462D03*
X0066180Y0035462D03*
X0072368Y0035462D03*
X0058680Y0030462D03*
X0072379Y0024643D03*
X0102379Y0024643D03*
X0112965Y0029913D03*
X0120465Y0034913D03*
X0127267Y0034890D03*
X0112965Y0039913D03*
X0102368Y0035462D03*
X0102392Y0046120D03*
X0102647Y0059288D03*
X0112692Y0063981D03*
X0120192Y0068981D03*
X0126665Y0069054D03*
X0112692Y0073981D03*
X0102757Y0069420D03*
X0102680Y0079560D03*
X0126625Y0078911D03*
X0126618Y0092936D03*
X0112479Y0097340D03*
X0119979Y0102340D03*
X0126558Y0102424D03*
X0112479Y0107340D03*
X0102957Y0102831D03*
X0102870Y0093233D03*
X0102877Y0112866D03*
X0126470Y0112307D03*
X0126751Y0126732D03*
X0112725Y0131560D03*
X0120225Y0136560D03*
X0126737Y0136448D03*
X0112725Y0141560D03*
X0102341Y0145288D03*
X0102404Y0135689D03*
X0102642Y0126279D03*
X0126607Y0146123D03*
X0126899Y0160018D03*
X0102848Y0159594D03*
X0290582Y0100560D03*
X0300618Y0100109D03*
X0311680Y0100119D03*
X0320643Y0072834D03*
X0311680Y0070119D03*
X0300618Y0070109D03*
X0290582Y0070560D03*
X0350643Y0072834D03*
X0264565Y0028513D03*
X0157258Y0024576D03*
X0127258Y0024576D03*
X0127217Y0045168D03*
X0126739Y0059307D03*
X0306144Y0153446D03*
X0342623Y0162149D03*
X0344069Y0175529D03*
X0314069Y0175529D03*
D13*
X0342623Y0154149D03*
X0310636Y0142352D03*
X0300636Y0142352D03*
X0290636Y0142352D03*
X0280636Y0142352D03*
X0268069Y0130474D03*
X0280636Y0112352D03*
X0290636Y0112352D03*
X0300636Y0112352D03*
X0310636Y0112352D03*
X0268910Y0106315D03*
X0197274Y0038182D03*
X0264565Y0036513D03*
D14*
X0308491Y0051733D03*
D15*
X0323343Y0034352D02*
X0324423Y0033272D01*
X0320845Y0033272D01*
X0318315Y0035802D01*
X0318315Y0039380D01*
X0320845Y0041910D01*
X0324423Y0041910D01*
X0326953Y0039380D01*
X0326953Y0035802D01*
X0324423Y0033272D01*
X0323752Y0034892D01*
X0321516Y0034892D01*
X0319935Y0036473D01*
X0319935Y0038709D01*
X0321516Y0040290D01*
X0323752Y0040290D01*
X0325333Y0038709D01*
X0325333Y0036473D01*
X0323752Y0034892D01*
X0323081Y0036512D01*
X0322187Y0036512D01*
X0321555Y0037144D01*
X0321555Y0038038D01*
X0322187Y0038670D01*
X0323081Y0038670D01*
X0323713Y0038038D01*
X0323713Y0037144D01*
X0323081Y0036512D01*
D16*
X0209059Y0074593D02*
X0203859Y0074593D01*
X0203859Y0084593D02*
X0209059Y0084593D01*
X0209059Y0094593D02*
X0203859Y0094593D01*
X0203859Y0104593D02*
X0209059Y0104593D01*
X0209059Y0114593D02*
X0203859Y0114593D01*
X0203859Y0124593D02*
X0209059Y0124593D01*
X0209059Y0134593D02*
X0203859Y0134593D01*
X0203859Y0144593D02*
X0209059Y0144593D01*
X0209059Y0154593D02*
X0203859Y0154593D01*
X0179059Y0154593D02*
X0173859Y0154593D01*
X0173859Y0144593D02*
X0179059Y0144593D01*
X0179059Y0134593D02*
X0173859Y0134593D01*
X0173859Y0124593D02*
X0179059Y0124593D01*
X0179059Y0114593D02*
X0173859Y0114593D01*
X0173859Y0104593D02*
X0179059Y0104593D01*
X0179059Y0094593D02*
X0173859Y0094593D01*
X0173859Y0084593D02*
X0179059Y0084593D01*
X0179059Y0074593D02*
X0173859Y0074593D01*
X0279953Y0164756D02*
X0285153Y0164756D01*
X0296970Y0176822D02*
X0302170Y0176822D01*
X0309953Y0164756D02*
X0315153Y0164756D01*
X0272170Y0176822D02*
X0266970Y0176822D01*
D17*
X0240702Y0035677D02*
X0240702Y0029677D01*
X0230702Y0029677D02*
X0230702Y0035677D01*
X0220702Y0035677D02*
X0220702Y0029677D01*
D18*
X0265268Y0050276D03*
X0255268Y0090276D03*
X0275268Y0090276D03*
X0321405Y0123631D03*
X0361405Y0113631D03*
X0361405Y0133631D03*
D19*
X0033450Y0123807D03*
X0023450Y0123807D03*
X0023450Y0113807D03*
X0033450Y0113807D03*
X0033450Y0103807D03*
X0023450Y0103807D03*
X0023450Y0093807D03*
X0033450Y0093807D03*
X0033450Y0083807D03*
X0023450Y0083807D03*
D20*
X0170032Y0035643D02*
X0170032Y0029706D01*
X0180032Y0029706D02*
X0180032Y0035643D01*
X0224840Y0107901D02*
X0230777Y0107901D01*
X0230777Y0117901D02*
X0224840Y0117901D01*
X0224840Y0127901D02*
X0230777Y0127901D01*
X0358714Y0062869D02*
X0364651Y0062869D01*
X0364651Y0052869D02*
X0358714Y0052869D01*
X0360371Y0088377D02*
X0366308Y0088377D01*
X0366308Y0098377D02*
X0360371Y0098377D01*
M02*
