G75*
%MOIN*%
%OFA0B0*%
%FSLAX25Y25*%
%IPPOS*%
%LPD*%
%AMOC8*
5,1,8,0,0,1.08239X$1,22.5*
%
%ADD10C,0.00394*%
%ADD11C,0.00000*%
%ADD12C,0.00600*%
%ADD13R,0.00085X0.00086*%
%ADD14R,0.00257X0.00086*%
%ADD15R,0.00428X0.00086*%
%ADD16R,0.00599X0.00086*%
%ADD17R,0.00599X0.00086*%
%ADD18R,0.00685X0.00086*%
%ADD19R,0.01027X0.00086*%
%ADD20R,0.01027X0.00086*%
%ADD21R,0.01198X0.00086*%
%ADD22R,0.01198X0.00086*%
%ADD23R,0.01369X0.00086*%
%ADD24R,0.01284X0.00086*%
%ADD25R,0.01541X0.00086*%
%ADD26R,0.01626X0.00086*%
%ADD27R,0.01626X0.00086*%
%ADD28R,0.01883X0.00086*%
%ADD29R,0.01883X0.00086*%
%ADD30R,0.02054X0.00086*%
%ADD31R,0.01969X0.00086*%
%ADD32R,0.02225X0.00086*%
%ADD33R,0.02396X0.00086*%
%ADD34R,0.02568X0.00086*%
%ADD35R,0.02739X0.00086*%
%ADD36R,0.02739X0.00086*%
%ADD37R,0.02824X0.00086*%
%ADD38R,0.02910X0.00086*%
%ADD39R,0.03081X0.00086*%
%ADD40R,0.03252X0.00086*%
%ADD41R,0.03424X0.00086*%
%ADD42R,0.03594X0.00086*%
%ADD43R,0.03595X0.00086*%
%ADD44R,0.03766X0.00086*%
%ADD45R,0.03766X0.00086*%
%ADD46R,0.03937X0.00086*%
%ADD47R,0.04108X0.00086*%
%ADD48R,0.04108X0.00086*%
%ADD49R,0.04280X0.00086*%
%ADD50R,0.04279X0.00086*%
%ADD51R,0.04450X0.00086*%
%ADD52R,0.04622X0.00086*%
%ADD53R,0.04793X0.00086*%
%ADD54R,0.04964X0.00086*%
%ADD55R,0.04964X0.00086*%
%ADD56R,0.05135X0.00086*%
%ADD57R,0.05135X0.00086*%
%ADD58R,0.05221X0.00086*%
%ADD59R,0.05220X0.00086*%
%ADD60R,0.05306X0.00086*%
%ADD61R,0.05307X0.00086*%
%ADD62R,0.05392X0.00086*%
%ADD63R,0.00171X0.00086*%
%ADD64R,0.05135X0.00086*%
%ADD65R,0.00342X0.00086*%
%ADD66R,0.05050X0.00086*%
%ADD67R,0.00428X0.00086*%
%ADD68R,0.04878X0.00086*%
%ADD69R,0.00685X0.00086*%
%ADD70R,0.00685X0.00086*%
%ADD71R,0.00856X0.00086*%
%ADD72R,0.04536X0.00086*%
%ADD73R,0.04451X0.00086*%
%ADD74R,0.04365X0.00086*%
%ADD75R,0.04194X0.00086*%
%ADD76R,0.01198X0.00086*%
%ADD77R,0.01198X0.00086*%
%ADD78R,0.01370X0.00086*%
%ADD79R,0.03852X0.00086*%
%ADD80R,0.01712X0.00086*%
%ADD81R,0.00942X0.00086*%
%ADD82R,0.03680X0.00086*%
%ADD83R,0.01711X0.00086*%
%ADD84R,0.00941X0.00086*%
%ADD85R,0.03509X0.00086*%
%ADD86R,0.01797X0.00086*%
%ADD87R,0.03423X0.00086*%
%ADD88R,0.03338X0.00086*%
%ADD89R,0.02140X0.00086*%
%ADD90R,0.03167X0.00086*%
%ADD91R,0.02311X0.00086*%
%ADD92R,0.02996X0.00086*%
%ADD93R,0.00770X0.00086*%
%ADD94R,0.02568X0.00086*%
%ADD95R,0.02739X0.00086*%
%ADD96R,0.00941X0.00086*%
%ADD97R,0.00770X0.00086*%
%ADD98R,0.02653X0.00086*%
%ADD99R,0.02567X0.00086*%
%ADD100R,0.00770X0.00086*%
%ADD101R,0.02482X0.00086*%
%ADD102R,0.02910X0.00086*%
%ADD103R,0.02311X0.00086*%
%ADD104R,0.03081X0.00086*%
%ADD105R,0.03252X0.00086*%
%ADD106R,0.02054X0.00086*%
%ADD107R,0.01455X0.00086*%
%ADD108R,0.04022X0.00086*%
%ADD109R,0.01113X0.00086*%
%ADD110R,0.04365X0.00086*%
%ADD111R,0.01027X0.00086*%
%ADD112R,0.04451X0.00086*%
%ADD113R,0.04622X0.00086*%
%ADD114R,0.00514X0.00086*%
%ADD115R,0.05135X0.00086*%
%ADD116R,0.00171X0.00086*%
%ADD117R,0.05306X0.00086*%
%ADD118R,0.00171X0.00086*%
%ADD119R,0.00343X0.00086*%
%ADD120R,0.00513X0.00086*%
%ADD121R,0.04536X0.00086*%
%ADD122R,0.01113X0.00086*%
%ADD123R,0.04194X0.00086*%
%ADD124R,0.04023X0.00086*%
%ADD125R,0.01455X0.00086*%
%ADD126R,0.03851X0.00086*%
%ADD127R,0.03680X0.00086*%
%ADD128R,0.01797X0.00086*%
%ADD129R,0.03509X0.00086*%
%ADD130R,0.02054X0.00086*%
%ADD131R,0.01883X0.00086*%
%ADD132R,0.02226X0.00086*%
%ADD133R,0.02482X0.00086*%
%ADD134R,0.02653X0.00086*%
%ADD135R,0.02824X0.00086*%
%ADD136R,0.02995X0.00086*%
%ADD137R,0.03167X0.00086*%
%ADD138R,0.03338X0.00086*%
%ADD139R,0.03937X0.00086*%
%ADD140R,0.01369X0.00086*%
%ADD141R,0.04194X0.00086*%
%ADD142R,0.00856X0.00086*%
%ADD143R,0.04365X0.00086*%
%ADD144R,0.05734X0.00086*%
%ADD145R,0.05820X0.00086*%
%ADD146R,0.05906X0.00086*%
%ADD147R,0.04707X0.00086*%
%ADD148R,0.06077X0.00086*%
%ADD149R,0.04707X0.00086*%
%ADD150R,0.04878X0.00086*%
%ADD151R,0.06248X0.00086*%
%ADD152R,0.04879X0.00086*%
%ADD153R,0.05050X0.00086*%
%ADD154R,0.00257X0.00086*%
%ADD155R,0.06419X0.00086*%
%ADD156R,0.06504X0.00086*%
%ADD157R,0.00086X0.00086*%
%ADD158R,0.06676X0.00086*%
%ADD159R,0.02139X0.00086*%
%ADD160R,0.04108X0.00086*%
%ADD161R,0.01455X0.00086*%
%ADD162R,0.03252X0.00086*%
%ADD163R,0.03851X0.00086*%
%ADD164R,0.05392X0.00086*%
%ADD165R,0.05563X0.00086*%
%ADD166R,0.05648X0.00086*%
%ADD167R,0.02140X0.00086*%
%ADD168R,0.05991X0.00086*%
%ADD169R,0.02311X0.00086*%
%ADD170R,0.02910X0.00086*%
%ADD171R,0.02139X0.00086*%
%ADD172R,0.03167X0.00086*%
%ADD173R,0.06163X0.00086*%
%ADD174R,0.06333X0.00086*%
%ADD175R,0.06590X0.00086*%
%ADD176R,0.06761X0.00086*%
%ADD177R,0.06932X0.00086*%
%ADD178R,0.07104X0.00086*%
%ADD179R,0.07275X0.00086*%
%ADD180R,0.07446X0.00086*%
%ADD181R,0.07532X0.00086*%
%ADD182R,0.07874X0.00086*%
%ADD183R,0.05220X0.00086*%
%ADD184R,0.08045X0.00086*%
%ADD185R,0.02910X0.00086*%
%ADD186R,0.08216X0.00086*%
%ADD187R,0.08388X0.00086*%
%ADD188R,0.08473X0.00086*%
%ADD189R,0.08644X0.00086*%
%ADD190R,0.08816X0.00086*%
%ADD191R,0.08987X0.00086*%
%ADD192R,0.11297X0.00086*%
%ADD193R,0.11298X0.00086*%
%ADD194R,0.11383X0.00086*%
%ADD195R,0.11469X0.00086*%
%ADD196R,0.00599X0.00086*%
%ADD197R,0.04707X0.00086*%
%ADD198R,0.11554X0.00086*%
%ADD199R,0.04622X0.00086*%
%ADD200R,0.00599X0.00086*%
%ADD201R,0.11554X0.00086*%
%ADD202R,0.11640X0.00086*%
%ADD203R,0.11726X0.00086*%
%ADD204R,0.11811X0.00086*%
%ADD205R,0.11897X0.00086*%
%ADD206R,0.11982X0.00086*%
%ADD207R,0.12068X0.00086*%
%ADD208R,0.12154X0.00086*%
%ADD209R,0.12325X0.00086*%
%ADD210R,0.02482X0.00086*%
%ADD211R,0.12410X0.00086*%
%ADD212R,0.02739X0.00086*%
%ADD213R,0.12581X0.00086*%
%ADD214R,0.12667X0.00086*%
%ADD215R,0.12752X0.00086*%
%ADD216R,0.12924X0.00086*%
%ADD217R,0.13009X0.00086*%
%ADD218R,0.13180X0.00086*%
%ADD219R,0.13266X0.00086*%
%ADD220R,0.13352X0.00086*%
%ADD221R,0.13522X0.00086*%
%ADD222R,0.04536X0.00086*%
%ADD223R,0.13694X0.00086*%
%ADD224R,0.01883X0.00086*%
%ADD225R,0.02482X0.00086*%
%ADD226R,0.00770X0.00086*%
%ADD227R,0.13865X0.00086*%
%ADD228R,0.14036X0.00086*%
%ADD229R,0.14122X0.00086*%
%ADD230R,0.12838X0.00086*%
%ADD231R,0.12924X0.00086*%
%ADD232R,0.13009X0.00086*%
%ADD233R,0.13095X0.00086*%
%ADD234R,0.13266X0.00086*%
%ADD235R,0.13523X0.00086*%
%ADD236R,0.01798X0.00086*%
%ADD237R,0.13608X0.00086*%
%ADD238R,0.04280X0.00086*%
%ADD239R,0.13694X0.00086*%
%ADD240R,0.13780X0.00086*%
%ADD241R,0.13865X0.00086*%
%ADD242R,0.13951X0.00086*%
%ADD243R,0.07531X0.00086*%
%ADD244R,0.14122X0.00086*%
%ADD245R,0.07189X0.00086*%
%ADD246R,0.14207X0.00086*%
%ADD247R,0.14293X0.00086*%
%ADD248R,0.14378X0.00086*%
%ADD249R,0.03424X0.00086*%
%ADD250R,0.14550X0.00086*%
%ADD251R,0.06761X0.00086*%
%ADD252R,0.02054X0.00086*%
%ADD253R,0.03423X0.00086*%
%ADD254R,0.14635X0.00086*%
%ADD255R,0.06676X0.00086*%
%ADD256R,0.14721X0.00086*%
%ADD257R,0.06505X0.00086*%
%ADD258R,0.14806X0.00086*%
%ADD259R,0.02567X0.00086*%
%ADD260R,0.14892X0.00086*%
%ADD261R,0.14978X0.00086*%
%ADD262R,0.15063X0.00086*%
%ADD263R,0.15149X0.00086*%
%ADD264R,0.05991X0.00086*%
%ADD265R,0.15234X0.00086*%
%ADD266R,0.15320X0.00086*%
%ADD267R,0.01283X0.00086*%
%ADD268R,0.15491X0.00086*%
%ADD269R,0.15577X0.00086*%
%ADD270R,0.05478X0.00086*%
%ADD271R,0.01370X0.00086*%
%ADD272R,0.00942X0.00086*%
%ADD273R,0.15662X0.00086*%
%ADD274R,0.15748X0.00086*%
%ADD275R,0.15833X0.00086*%
%ADD276R,0.15919X0.00086*%
%ADD277R,0.16005X0.00086*%
%ADD278R,0.16090X0.00086*%
%ADD279R,0.04793X0.00086*%
%ADD280R,0.16176X0.00086*%
%ADD281R,0.16261X0.00086*%
%ADD282R,0.16347X0.00086*%
%ADD283R,0.16518X0.00086*%
%ADD284R,0.16604X0.00086*%
%ADD285R,0.16689X0.00086*%
%ADD286R,0.16775X0.00086*%
%ADD287R,0.16861X0.00086*%
%ADD288R,0.16946X0.00086*%
%ADD289R,0.16518X0.00086*%
%ADD290R,0.16433X0.00086*%
%ADD291R,0.04964X0.00086*%
%ADD292R,0.16091X0.00086*%
%ADD293R,0.15834X0.00086*%
%ADD294R,0.15663X0.00086*%
%ADD295R,0.05478X0.00086*%
%ADD296R,0.15577X0.00086*%
%ADD297R,0.01541X0.00086*%
%ADD298R,0.15406X0.00086*%
%ADD299R,0.05649X0.00086*%
%ADD300R,0.04707X0.00086*%
%ADD301R,0.05649X0.00086*%
%ADD302R,0.15235X0.00086*%
%ADD303R,0.14978X0.00086*%
%ADD304R,0.05991X0.00086*%
%ADD305R,0.14807X0.00086*%
%ADD306R,0.06162X0.00086*%
%ADD307R,0.14550X0.00086*%
%ADD308R,0.11896X0.00086*%
%ADD309R,0.06419X0.00086*%
%ADD310R,0.03680X0.00086*%
%ADD311R,0.11811X0.00086*%
%ADD312R,0.06505X0.00086*%
%ADD313R,0.11725X0.00086*%
%ADD314R,0.06847X0.00086*%
%ADD315R,0.06933X0.00086*%
%ADD316R,0.07018X0.00086*%
%ADD317R,0.07275X0.00086*%
%ADD318R,0.11212X0.00086*%
%ADD319R,0.11126X0.00086*%
%ADD320R,0.07789X0.00086*%
%ADD321R,0.11041X0.00086*%
%ADD322R,0.10784X0.00086*%
%ADD323R,0.10870X0.00086*%
%ADD324R,0.10613X0.00086*%
%ADD325R,0.10527X0.00086*%
%ADD326R,0.10698X0.00086*%
%ADD327R,0.10356X0.00086*%
%ADD328R,0.10613X0.00086*%
%ADD329R,0.10270X0.00086*%
%ADD330R,0.10185X0.00086*%
%ADD331R,0.10442X0.00086*%
%ADD332R,0.10099X0.00086*%
%ADD333R,0.09928X0.00086*%
%ADD334R,0.09843X0.00086*%
%ADD335R,0.10185X0.00086*%
%ADD336R,0.09757X0.00086*%
%ADD337R,0.09586X0.00086*%
%ADD338R,0.10014X0.00086*%
%ADD339R,0.09500X0.00086*%
%ADD340R,0.09928X0.00086*%
%ADD341R,0.09415X0.00086*%
%ADD342R,0.01113X0.00086*%
%ADD343R,0.09843X0.00086*%
%ADD344R,0.11554X0.00086*%
%ADD345R,0.09757X0.00086*%
%ADD346R,0.09671X0.00086*%
%ADD347R,0.11041X0.00086*%
%ADD348R,0.09329X0.00086*%
%ADD349R,0.10955X0.00086*%
%ADD350R,0.09243X0.00086*%
%ADD351R,0.10870X0.00086*%
%ADD352R,0.09158X0.00086*%
%ADD353R,0.09072X0.00086*%
%ADD354R,0.10613X0.00086*%
%ADD355R,0.02396X0.00086*%
%ADD356R,0.08901X0.00086*%
%ADD357R,0.10356X0.00086*%
%ADD358R,0.02824X0.00086*%
%ADD359R,0.08815X0.00086*%
%ADD360R,0.08730X0.00086*%
%ADD361R,0.08559X0.00086*%
%ADD362R,0.08387X0.00086*%
%ADD363R,0.08302X0.00086*%
%ADD364R,0.09585X0.00086*%
%ADD365R,0.08131X0.00086*%
%ADD366R,0.08045X0.00086*%
%ADD367R,0.07959X0.00086*%
%ADD368R,0.00257X0.00086*%
%ADD369R,0.05050X0.00086*%
%ADD370R,0.07874X0.00086*%
%ADD371R,0.08987X0.00086*%
%ADD372R,0.00343X0.00086*%
%ADD373R,0.07788X0.00086*%
%ADD374R,0.08901X0.00086*%
%ADD375R,0.07703X0.00086*%
%ADD376R,0.07617X0.00086*%
%ADD377R,0.07361X0.00086*%
%ADD378R,0.08217X0.00086*%
%ADD379R,0.03595X0.00086*%
%ADD380R,0.07788X0.00086*%
%ADD381R,0.03509X0.00086*%
%ADD382R,0.06504X0.00086*%
%ADD383R,0.02396X0.00086*%
%ADD384R,0.02654X0.00086*%
%ADD385R,0.01027X0.00086*%
%ADD386R,0.04279X0.00086*%
%ADD387R,0.05221X0.00086*%
%ADD388R,0.00856X0.00086*%
%ADD389R,0.07360X0.00086*%
%ADD390R,0.05307X0.00086*%
%ADD391R,0.00342X0.00086*%
%ADD392R,0.07189X0.00086*%
%ADD393R,0.07104X0.00086*%
%ADD394R,0.06847X0.00086*%
%ADD395R,0.03680X0.00086*%
%ADD396R,0.01626X0.00086*%
%ADD397R,0.01626X0.00086*%
%ADD398R,0.05563X0.00086*%
%ADD399R,0.03852X0.00086*%
%ADD400R,0.03766X0.00086*%
%ADD401R,0.04022X0.00086*%
%ADD402R,0.01284X0.00086*%
%ADD403R,0.02396X0.00086*%
%ADD404R,0.02225X0.00086*%
%ADD405R,0.02996X0.00086*%
%ADD406R,0.02226X0.00086*%
%ADD407R,0.00085X0.00086*%
%ADD408R,0.04793X0.00086*%
D10*
X0006050Y0011501D02*
X0006050Y0196540D01*
X0380066Y0196540D01*
X0380066Y0011501D01*
X0006050Y0011501D01*
D11*
X0013924Y0027249D02*
X0013926Y0027442D01*
X0013933Y0027635D01*
X0013945Y0027828D01*
X0013962Y0028021D01*
X0013983Y0028213D01*
X0014009Y0028404D01*
X0014040Y0028595D01*
X0014075Y0028785D01*
X0014115Y0028974D01*
X0014160Y0029162D01*
X0014209Y0029349D01*
X0014263Y0029535D01*
X0014321Y0029719D01*
X0014384Y0029902D01*
X0014452Y0030083D01*
X0014523Y0030262D01*
X0014600Y0030440D01*
X0014680Y0030616D01*
X0014765Y0030789D01*
X0014854Y0030961D01*
X0014947Y0031130D01*
X0015044Y0031297D01*
X0015146Y0031462D01*
X0015251Y0031624D01*
X0015360Y0031783D01*
X0015474Y0031940D01*
X0015591Y0032093D01*
X0015711Y0032244D01*
X0015836Y0032392D01*
X0015964Y0032537D01*
X0016095Y0032678D01*
X0016230Y0032817D01*
X0016369Y0032952D01*
X0016510Y0033083D01*
X0016655Y0033211D01*
X0016803Y0033336D01*
X0016954Y0033456D01*
X0017107Y0033573D01*
X0017264Y0033687D01*
X0017423Y0033796D01*
X0017585Y0033901D01*
X0017750Y0034003D01*
X0017917Y0034100D01*
X0018086Y0034193D01*
X0018258Y0034282D01*
X0018431Y0034367D01*
X0018607Y0034447D01*
X0018785Y0034524D01*
X0018964Y0034595D01*
X0019145Y0034663D01*
X0019328Y0034726D01*
X0019512Y0034784D01*
X0019698Y0034838D01*
X0019885Y0034887D01*
X0020073Y0034932D01*
X0020262Y0034972D01*
X0020452Y0035007D01*
X0020643Y0035038D01*
X0020834Y0035064D01*
X0021026Y0035085D01*
X0021219Y0035102D01*
X0021412Y0035114D01*
X0021605Y0035121D01*
X0021798Y0035123D01*
X0021991Y0035121D01*
X0022184Y0035114D01*
X0022377Y0035102D01*
X0022570Y0035085D01*
X0022762Y0035064D01*
X0022953Y0035038D01*
X0023144Y0035007D01*
X0023334Y0034972D01*
X0023523Y0034932D01*
X0023711Y0034887D01*
X0023898Y0034838D01*
X0024084Y0034784D01*
X0024268Y0034726D01*
X0024451Y0034663D01*
X0024632Y0034595D01*
X0024811Y0034524D01*
X0024989Y0034447D01*
X0025165Y0034367D01*
X0025338Y0034282D01*
X0025510Y0034193D01*
X0025679Y0034100D01*
X0025846Y0034003D01*
X0026011Y0033901D01*
X0026173Y0033796D01*
X0026332Y0033687D01*
X0026489Y0033573D01*
X0026642Y0033456D01*
X0026793Y0033336D01*
X0026941Y0033211D01*
X0027086Y0033083D01*
X0027227Y0032952D01*
X0027366Y0032817D01*
X0027501Y0032678D01*
X0027632Y0032537D01*
X0027760Y0032392D01*
X0027885Y0032244D01*
X0028005Y0032093D01*
X0028122Y0031940D01*
X0028236Y0031783D01*
X0028345Y0031624D01*
X0028450Y0031462D01*
X0028552Y0031297D01*
X0028649Y0031130D01*
X0028742Y0030961D01*
X0028831Y0030789D01*
X0028916Y0030616D01*
X0028996Y0030440D01*
X0029073Y0030262D01*
X0029144Y0030083D01*
X0029212Y0029902D01*
X0029275Y0029719D01*
X0029333Y0029535D01*
X0029387Y0029349D01*
X0029436Y0029162D01*
X0029481Y0028974D01*
X0029521Y0028785D01*
X0029556Y0028595D01*
X0029587Y0028404D01*
X0029613Y0028213D01*
X0029634Y0028021D01*
X0029651Y0027828D01*
X0029663Y0027635D01*
X0029670Y0027442D01*
X0029672Y0027249D01*
X0029670Y0027056D01*
X0029663Y0026863D01*
X0029651Y0026670D01*
X0029634Y0026477D01*
X0029613Y0026285D01*
X0029587Y0026094D01*
X0029556Y0025903D01*
X0029521Y0025713D01*
X0029481Y0025524D01*
X0029436Y0025336D01*
X0029387Y0025149D01*
X0029333Y0024963D01*
X0029275Y0024779D01*
X0029212Y0024596D01*
X0029144Y0024415D01*
X0029073Y0024236D01*
X0028996Y0024058D01*
X0028916Y0023882D01*
X0028831Y0023709D01*
X0028742Y0023537D01*
X0028649Y0023368D01*
X0028552Y0023201D01*
X0028450Y0023036D01*
X0028345Y0022874D01*
X0028236Y0022715D01*
X0028122Y0022558D01*
X0028005Y0022405D01*
X0027885Y0022254D01*
X0027760Y0022106D01*
X0027632Y0021961D01*
X0027501Y0021820D01*
X0027366Y0021681D01*
X0027227Y0021546D01*
X0027086Y0021415D01*
X0026941Y0021287D01*
X0026793Y0021162D01*
X0026642Y0021042D01*
X0026489Y0020925D01*
X0026332Y0020811D01*
X0026173Y0020702D01*
X0026011Y0020597D01*
X0025846Y0020495D01*
X0025679Y0020398D01*
X0025510Y0020305D01*
X0025338Y0020216D01*
X0025165Y0020131D01*
X0024989Y0020051D01*
X0024811Y0019974D01*
X0024632Y0019903D01*
X0024451Y0019835D01*
X0024268Y0019772D01*
X0024084Y0019714D01*
X0023898Y0019660D01*
X0023711Y0019611D01*
X0023523Y0019566D01*
X0023334Y0019526D01*
X0023144Y0019491D01*
X0022953Y0019460D01*
X0022762Y0019434D01*
X0022570Y0019413D01*
X0022377Y0019396D01*
X0022184Y0019384D01*
X0021991Y0019377D01*
X0021798Y0019375D01*
X0021605Y0019377D01*
X0021412Y0019384D01*
X0021219Y0019396D01*
X0021026Y0019413D01*
X0020834Y0019434D01*
X0020643Y0019460D01*
X0020452Y0019491D01*
X0020262Y0019526D01*
X0020073Y0019566D01*
X0019885Y0019611D01*
X0019698Y0019660D01*
X0019512Y0019714D01*
X0019328Y0019772D01*
X0019145Y0019835D01*
X0018964Y0019903D01*
X0018785Y0019974D01*
X0018607Y0020051D01*
X0018431Y0020131D01*
X0018258Y0020216D01*
X0018086Y0020305D01*
X0017917Y0020398D01*
X0017750Y0020495D01*
X0017585Y0020597D01*
X0017423Y0020702D01*
X0017264Y0020811D01*
X0017107Y0020925D01*
X0016954Y0021042D01*
X0016803Y0021162D01*
X0016655Y0021287D01*
X0016510Y0021415D01*
X0016369Y0021546D01*
X0016230Y0021681D01*
X0016095Y0021820D01*
X0015964Y0021961D01*
X0015836Y0022106D01*
X0015711Y0022254D01*
X0015591Y0022405D01*
X0015474Y0022558D01*
X0015360Y0022715D01*
X0015251Y0022874D01*
X0015146Y0023036D01*
X0015044Y0023201D01*
X0014947Y0023368D01*
X0014854Y0023537D01*
X0014765Y0023709D01*
X0014680Y0023882D01*
X0014600Y0024058D01*
X0014523Y0024236D01*
X0014452Y0024415D01*
X0014384Y0024596D01*
X0014321Y0024779D01*
X0014263Y0024963D01*
X0014209Y0025149D01*
X0014160Y0025336D01*
X0014115Y0025524D01*
X0014075Y0025713D01*
X0014040Y0025903D01*
X0014009Y0026094D01*
X0013983Y0026285D01*
X0013962Y0026477D01*
X0013945Y0026670D01*
X0013933Y0026863D01*
X0013926Y0027056D01*
X0013924Y0027249D01*
X0013924Y0180792D02*
X0013926Y0180985D01*
X0013933Y0181178D01*
X0013945Y0181371D01*
X0013962Y0181564D01*
X0013983Y0181756D01*
X0014009Y0181947D01*
X0014040Y0182138D01*
X0014075Y0182328D01*
X0014115Y0182517D01*
X0014160Y0182705D01*
X0014209Y0182892D01*
X0014263Y0183078D01*
X0014321Y0183262D01*
X0014384Y0183445D01*
X0014452Y0183626D01*
X0014523Y0183805D01*
X0014600Y0183983D01*
X0014680Y0184159D01*
X0014765Y0184332D01*
X0014854Y0184504D01*
X0014947Y0184673D01*
X0015044Y0184840D01*
X0015146Y0185005D01*
X0015251Y0185167D01*
X0015360Y0185326D01*
X0015474Y0185483D01*
X0015591Y0185636D01*
X0015711Y0185787D01*
X0015836Y0185935D01*
X0015964Y0186080D01*
X0016095Y0186221D01*
X0016230Y0186360D01*
X0016369Y0186495D01*
X0016510Y0186626D01*
X0016655Y0186754D01*
X0016803Y0186879D01*
X0016954Y0186999D01*
X0017107Y0187116D01*
X0017264Y0187230D01*
X0017423Y0187339D01*
X0017585Y0187444D01*
X0017750Y0187546D01*
X0017917Y0187643D01*
X0018086Y0187736D01*
X0018258Y0187825D01*
X0018431Y0187910D01*
X0018607Y0187990D01*
X0018785Y0188067D01*
X0018964Y0188138D01*
X0019145Y0188206D01*
X0019328Y0188269D01*
X0019512Y0188327D01*
X0019698Y0188381D01*
X0019885Y0188430D01*
X0020073Y0188475D01*
X0020262Y0188515D01*
X0020452Y0188550D01*
X0020643Y0188581D01*
X0020834Y0188607D01*
X0021026Y0188628D01*
X0021219Y0188645D01*
X0021412Y0188657D01*
X0021605Y0188664D01*
X0021798Y0188666D01*
X0021991Y0188664D01*
X0022184Y0188657D01*
X0022377Y0188645D01*
X0022570Y0188628D01*
X0022762Y0188607D01*
X0022953Y0188581D01*
X0023144Y0188550D01*
X0023334Y0188515D01*
X0023523Y0188475D01*
X0023711Y0188430D01*
X0023898Y0188381D01*
X0024084Y0188327D01*
X0024268Y0188269D01*
X0024451Y0188206D01*
X0024632Y0188138D01*
X0024811Y0188067D01*
X0024989Y0187990D01*
X0025165Y0187910D01*
X0025338Y0187825D01*
X0025510Y0187736D01*
X0025679Y0187643D01*
X0025846Y0187546D01*
X0026011Y0187444D01*
X0026173Y0187339D01*
X0026332Y0187230D01*
X0026489Y0187116D01*
X0026642Y0186999D01*
X0026793Y0186879D01*
X0026941Y0186754D01*
X0027086Y0186626D01*
X0027227Y0186495D01*
X0027366Y0186360D01*
X0027501Y0186221D01*
X0027632Y0186080D01*
X0027760Y0185935D01*
X0027885Y0185787D01*
X0028005Y0185636D01*
X0028122Y0185483D01*
X0028236Y0185326D01*
X0028345Y0185167D01*
X0028450Y0185005D01*
X0028552Y0184840D01*
X0028649Y0184673D01*
X0028742Y0184504D01*
X0028831Y0184332D01*
X0028916Y0184159D01*
X0028996Y0183983D01*
X0029073Y0183805D01*
X0029144Y0183626D01*
X0029212Y0183445D01*
X0029275Y0183262D01*
X0029333Y0183078D01*
X0029387Y0182892D01*
X0029436Y0182705D01*
X0029481Y0182517D01*
X0029521Y0182328D01*
X0029556Y0182138D01*
X0029587Y0181947D01*
X0029613Y0181756D01*
X0029634Y0181564D01*
X0029651Y0181371D01*
X0029663Y0181178D01*
X0029670Y0180985D01*
X0029672Y0180792D01*
X0029670Y0180599D01*
X0029663Y0180406D01*
X0029651Y0180213D01*
X0029634Y0180020D01*
X0029613Y0179828D01*
X0029587Y0179637D01*
X0029556Y0179446D01*
X0029521Y0179256D01*
X0029481Y0179067D01*
X0029436Y0178879D01*
X0029387Y0178692D01*
X0029333Y0178506D01*
X0029275Y0178322D01*
X0029212Y0178139D01*
X0029144Y0177958D01*
X0029073Y0177779D01*
X0028996Y0177601D01*
X0028916Y0177425D01*
X0028831Y0177252D01*
X0028742Y0177080D01*
X0028649Y0176911D01*
X0028552Y0176744D01*
X0028450Y0176579D01*
X0028345Y0176417D01*
X0028236Y0176258D01*
X0028122Y0176101D01*
X0028005Y0175948D01*
X0027885Y0175797D01*
X0027760Y0175649D01*
X0027632Y0175504D01*
X0027501Y0175363D01*
X0027366Y0175224D01*
X0027227Y0175089D01*
X0027086Y0174958D01*
X0026941Y0174830D01*
X0026793Y0174705D01*
X0026642Y0174585D01*
X0026489Y0174468D01*
X0026332Y0174354D01*
X0026173Y0174245D01*
X0026011Y0174140D01*
X0025846Y0174038D01*
X0025679Y0173941D01*
X0025510Y0173848D01*
X0025338Y0173759D01*
X0025165Y0173674D01*
X0024989Y0173594D01*
X0024811Y0173517D01*
X0024632Y0173446D01*
X0024451Y0173378D01*
X0024268Y0173315D01*
X0024084Y0173257D01*
X0023898Y0173203D01*
X0023711Y0173154D01*
X0023523Y0173109D01*
X0023334Y0173069D01*
X0023144Y0173034D01*
X0022953Y0173003D01*
X0022762Y0172977D01*
X0022570Y0172956D01*
X0022377Y0172939D01*
X0022184Y0172927D01*
X0021991Y0172920D01*
X0021798Y0172918D01*
X0021605Y0172920D01*
X0021412Y0172927D01*
X0021219Y0172939D01*
X0021026Y0172956D01*
X0020834Y0172977D01*
X0020643Y0173003D01*
X0020452Y0173034D01*
X0020262Y0173069D01*
X0020073Y0173109D01*
X0019885Y0173154D01*
X0019698Y0173203D01*
X0019512Y0173257D01*
X0019328Y0173315D01*
X0019145Y0173378D01*
X0018964Y0173446D01*
X0018785Y0173517D01*
X0018607Y0173594D01*
X0018431Y0173674D01*
X0018258Y0173759D01*
X0018086Y0173848D01*
X0017917Y0173941D01*
X0017750Y0174038D01*
X0017585Y0174140D01*
X0017423Y0174245D01*
X0017264Y0174354D01*
X0017107Y0174468D01*
X0016954Y0174585D01*
X0016803Y0174705D01*
X0016655Y0174830D01*
X0016510Y0174958D01*
X0016369Y0175089D01*
X0016230Y0175224D01*
X0016095Y0175363D01*
X0015964Y0175504D01*
X0015836Y0175649D01*
X0015711Y0175797D01*
X0015591Y0175948D01*
X0015474Y0176101D01*
X0015360Y0176258D01*
X0015251Y0176417D01*
X0015146Y0176579D01*
X0015044Y0176744D01*
X0014947Y0176911D01*
X0014854Y0177080D01*
X0014765Y0177252D01*
X0014680Y0177425D01*
X0014600Y0177601D01*
X0014523Y0177779D01*
X0014452Y0177958D01*
X0014384Y0178139D01*
X0014321Y0178322D01*
X0014263Y0178506D01*
X0014209Y0178692D01*
X0014160Y0178879D01*
X0014115Y0179067D01*
X0014075Y0179256D01*
X0014040Y0179446D01*
X0014009Y0179637D01*
X0013983Y0179828D01*
X0013962Y0180020D01*
X0013945Y0180213D01*
X0013933Y0180406D01*
X0013926Y0180599D01*
X0013924Y0180792D01*
X0356444Y0180792D02*
X0356446Y0180985D01*
X0356453Y0181178D01*
X0356465Y0181371D01*
X0356482Y0181564D01*
X0356503Y0181756D01*
X0356529Y0181947D01*
X0356560Y0182138D01*
X0356595Y0182328D01*
X0356635Y0182517D01*
X0356680Y0182705D01*
X0356729Y0182892D01*
X0356783Y0183078D01*
X0356841Y0183262D01*
X0356904Y0183445D01*
X0356972Y0183626D01*
X0357043Y0183805D01*
X0357120Y0183983D01*
X0357200Y0184159D01*
X0357285Y0184332D01*
X0357374Y0184504D01*
X0357467Y0184673D01*
X0357564Y0184840D01*
X0357666Y0185005D01*
X0357771Y0185167D01*
X0357880Y0185326D01*
X0357994Y0185483D01*
X0358111Y0185636D01*
X0358231Y0185787D01*
X0358356Y0185935D01*
X0358484Y0186080D01*
X0358615Y0186221D01*
X0358750Y0186360D01*
X0358889Y0186495D01*
X0359030Y0186626D01*
X0359175Y0186754D01*
X0359323Y0186879D01*
X0359474Y0186999D01*
X0359627Y0187116D01*
X0359784Y0187230D01*
X0359943Y0187339D01*
X0360105Y0187444D01*
X0360270Y0187546D01*
X0360437Y0187643D01*
X0360606Y0187736D01*
X0360778Y0187825D01*
X0360951Y0187910D01*
X0361127Y0187990D01*
X0361305Y0188067D01*
X0361484Y0188138D01*
X0361665Y0188206D01*
X0361848Y0188269D01*
X0362032Y0188327D01*
X0362218Y0188381D01*
X0362405Y0188430D01*
X0362593Y0188475D01*
X0362782Y0188515D01*
X0362972Y0188550D01*
X0363163Y0188581D01*
X0363354Y0188607D01*
X0363546Y0188628D01*
X0363739Y0188645D01*
X0363932Y0188657D01*
X0364125Y0188664D01*
X0364318Y0188666D01*
X0364511Y0188664D01*
X0364704Y0188657D01*
X0364897Y0188645D01*
X0365090Y0188628D01*
X0365282Y0188607D01*
X0365473Y0188581D01*
X0365664Y0188550D01*
X0365854Y0188515D01*
X0366043Y0188475D01*
X0366231Y0188430D01*
X0366418Y0188381D01*
X0366604Y0188327D01*
X0366788Y0188269D01*
X0366971Y0188206D01*
X0367152Y0188138D01*
X0367331Y0188067D01*
X0367509Y0187990D01*
X0367685Y0187910D01*
X0367858Y0187825D01*
X0368030Y0187736D01*
X0368199Y0187643D01*
X0368366Y0187546D01*
X0368531Y0187444D01*
X0368693Y0187339D01*
X0368852Y0187230D01*
X0369009Y0187116D01*
X0369162Y0186999D01*
X0369313Y0186879D01*
X0369461Y0186754D01*
X0369606Y0186626D01*
X0369747Y0186495D01*
X0369886Y0186360D01*
X0370021Y0186221D01*
X0370152Y0186080D01*
X0370280Y0185935D01*
X0370405Y0185787D01*
X0370525Y0185636D01*
X0370642Y0185483D01*
X0370756Y0185326D01*
X0370865Y0185167D01*
X0370970Y0185005D01*
X0371072Y0184840D01*
X0371169Y0184673D01*
X0371262Y0184504D01*
X0371351Y0184332D01*
X0371436Y0184159D01*
X0371516Y0183983D01*
X0371593Y0183805D01*
X0371664Y0183626D01*
X0371732Y0183445D01*
X0371795Y0183262D01*
X0371853Y0183078D01*
X0371907Y0182892D01*
X0371956Y0182705D01*
X0372001Y0182517D01*
X0372041Y0182328D01*
X0372076Y0182138D01*
X0372107Y0181947D01*
X0372133Y0181756D01*
X0372154Y0181564D01*
X0372171Y0181371D01*
X0372183Y0181178D01*
X0372190Y0180985D01*
X0372192Y0180792D01*
X0372190Y0180599D01*
X0372183Y0180406D01*
X0372171Y0180213D01*
X0372154Y0180020D01*
X0372133Y0179828D01*
X0372107Y0179637D01*
X0372076Y0179446D01*
X0372041Y0179256D01*
X0372001Y0179067D01*
X0371956Y0178879D01*
X0371907Y0178692D01*
X0371853Y0178506D01*
X0371795Y0178322D01*
X0371732Y0178139D01*
X0371664Y0177958D01*
X0371593Y0177779D01*
X0371516Y0177601D01*
X0371436Y0177425D01*
X0371351Y0177252D01*
X0371262Y0177080D01*
X0371169Y0176911D01*
X0371072Y0176744D01*
X0370970Y0176579D01*
X0370865Y0176417D01*
X0370756Y0176258D01*
X0370642Y0176101D01*
X0370525Y0175948D01*
X0370405Y0175797D01*
X0370280Y0175649D01*
X0370152Y0175504D01*
X0370021Y0175363D01*
X0369886Y0175224D01*
X0369747Y0175089D01*
X0369606Y0174958D01*
X0369461Y0174830D01*
X0369313Y0174705D01*
X0369162Y0174585D01*
X0369009Y0174468D01*
X0368852Y0174354D01*
X0368693Y0174245D01*
X0368531Y0174140D01*
X0368366Y0174038D01*
X0368199Y0173941D01*
X0368030Y0173848D01*
X0367858Y0173759D01*
X0367685Y0173674D01*
X0367509Y0173594D01*
X0367331Y0173517D01*
X0367152Y0173446D01*
X0366971Y0173378D01*
X0366788Y0173315D01*
X0366604Y0173257D01*
X0366418Y0173203D01*
X0366231Y0173154D01*
X0366043Y0173109D01*
X0365854Y0173069D01*
X0365664Y0173034D01*
X0365473Y0173003D01*
X0365282Y0172977D01*
X0365090Y0172956D01*
X0364897Y0172939D01*
X0364704Y0172927D01*
X0364511Y0172920D01*
X0364318Y0172918D01*
X0364125Y0172920D01*
X0363932Y0172927D01*
X0363739Y0172939D01*
X0363546Y0172956D01*
X0363354Y0172977D01*
X0363163Y0173003D01*
X0362972Y0173034D01*
X0362782Y0173069D01*
X0362593Y0173109D01*
X0362405Y0173154D01*
X0362218Y0173203D01*
X0362032Y0173257D01*
X0361848Y0173315D01*
X0361665Y0173378D01*
X0361484Y0173446D01*
X0361305Y0173517D01*
X0361127Y0173594D01*
X0360951Y0173674D01*
X0360778Y0173759D01*
X0360606Y0173848D01*
X0360437Y0173941D01*
X0360270Y0174038D01*
X0360105Y0174140D01*
X0359943Y0174245D01*
X0359784Y0174354D01*
X0359627Y0174468D01*
X0359474Y0174585D01*
X0359323Y0174705D01*
X0359175Y0174830D01*
X0359030Y0174958D01*
X0358889Y0175089D01*
X0358750Y0175224D01*
X0358615Y0175363D01*
X0358484Y0175504D01*
X0358356Y0175649D01*
X0358231Y0175797D01*
X0358111Y0175948D01*
X0357994Y0176101D01*
X0357880Y0176258D01*
X0357771Y0176417D01*
X0357666Y0176579D01*
X0357564Y0176744D01*
X0357467Y0176911D01*
X0357374Y0177080D01*
X0357285Y0177252D01*
X0357200Y0177425D01*
X0357120Y0177601D01*
X0357043Y0177779D01*
X0356972Y0177958D01*
X0356904Y0178139D01*
X0356841Y0178322D01*
X0356783Y0178506D01*
X0356729Y0178692D01*
X0356680Y0178879D01*
X0356635Y0179067D01*
X0356595Y0179256D01*
X0356560Y0179446D01*
X0356529Y0179637D01*
X0356503Y0179828D01*
X0356482Y0180020D01*
X0356465Y0180213D01*
X0356453Y0180406D01*
X0356446Y0180599D01*
X0356444Y0180792D01*
X0356444Y0027249D02*
X0356446Y0027442D01*
X0356453Y0027635D01*
X0356465Y0027828D01*
X0356482Y0028021D01*
X0356503Y0028213D01*
X0356529Y0028404D01*
X0356560Y0028595D01*
X0356595Y0028785D01*
X0356635Y0028974D01*
X0356680Y0029162D01*
X0356729Y0029349D01*
X0356783Y0029535D01*
X0356841Y0029719D01*
X0356904Y0029902D01*
X0356972Y0030083D01*
X0357043Y0030262D01*
X0357120Y0030440D01*
X0357200Y0030616D01*
X0357285Y0030789D01*
X0357374Y0030961D01*
X0357467Y0031130D01*
X0357564Y0031297D01*
X0357666Y0031462D01*
X0357771Y0031624D01*
X0357880Y0031783D01*
X0357994Y0031940D01*
X0358111Y0032093D01*
X0358231Y0032244D01*
X0358356Y0032392D01*
X0358484Y0032537D01*
X0358615Y0032678D01*
X0358750Y0032817D01*
X0358889Y0032952D01*
X0359030Y0033083D01*
X0359175Y0033211D01*
X0359323Y0033336D01*
X0359474Y0033456D01*
X0359627Y0033573D01*
X0359784Y0033687D01*
X0359943Y0033796D01*
X0360105Y0033901D01*
X0360270Y0034003D01*
X0360437Y0034100D01*
X0360606Y0034193D01*
X0360778Y0034282D01*
X0360951Y0034367D01*
X0361127Y0034447D01*
X0361305Y0034524D01*
X0361484Y0034595D01*
X0361665Y0034663D01*
X0361848Y0034726D01*
X0362032Y0034784D01*
X0362218Y0034838D01*
X0362405Y0034887D01*
X0362593Y0034932D01*
X0362782Y0034972D01*
X0362972Y0035007D01*
X0363163Y0035038D01*
X0363354Y0035064D01*
X0363546Y0035085D01*
X0363739Y0035102D01*
X0363932Y0035114D01*
X0364125Y0035121D01*
X0364318Y0035123D01*
X0364511Y0035121D01*
X0364704Y0035114D01*
X0364897Y0035102D01*
X0365090Y0035085D01*
X0365282Y0035064D01*
X0365473Y0035038D01*
X0365664Y0035007D01*
X0365854Y0034972D01*
X0366043Y0034932D01*
X0366231Y0034887D01*
X0366418Y0034838D01*
X0366604Y0034784D01*
X0366788Y0034726D01*
X0366971Y0034663D01*
X0367152Y0034595D01*
X0367331Y0034524D01*
X0367509Y0034447D01*
X0367685Y0034367D01*
X0367858Y0034282D01*
X0368030Y0034193D01*
X0368199Y0034100D01*
X0368366Y0034003D01*
X0368531Y0033901D01*
X0368693Y0033796D01*
X0368852Y0033687D01*
X0369009Y0033573D01*
X0369162Y0033456D01*
X0369313Y0033336D01*
X0369461Y0033211D01*
X0369606Y0033083D01*
X0369747Y0032952D01*
X0369886Y0032817D01*
X0370021Y0032678D01*
X0370152Y0032537D01*
X0370280Y0032392D01*
X0370405Y0032244D01*
X0370525Y0032093D01*
X0370642Y0031940D01*
X0370756Y0031783D01*
X0370865Y0031624D01*
X0370970Y0031462D01*
X0371072Y0031297D01*
X0371169Y0031130D01*
X0371262Y0030961D01*
X0371351Y0030789D01*
X0371436Y0030616D01*
X0371516Y0030440D01*
X0371593Y0030262D01*
X0371664Y0030083D01*
X0371732Y0029902D01*
X0371795Y0029719D01*
X0371853Y0029535D01*
X0371907Y0029349D01*
X0371956Y0029162D01*
X0372001Y0028974D01*
X0372041Y0028785D01*
X0372076Y0028595D01*
X0372107Y0028404D01*
X0372133Y0028213D01*
X0372154Y0028021D01*
X0372171Y0027828D01*
X0372183Y0027635D01*
X0372190Y0027442D01*
X0372192Y0027249D01*
X0372190Y0027056D01*
X0372183Y0026863D01*
X0372171Y0026670D01*
X0372154Y0026477D01*
X0372133Y0026285D01*
X0372107Y0026094D01*
X0372076Y0025903D01*
X0372041Y0025713D01*
X0372001Y0025524D01*
X0371956Y0025336D01*
X0371907Y0025149D01*
X0371853Y0024963D01*
X0371795Y0024779D01*
X0371732Y0024596D01*
X0371664Y0024415D01*
X0371593Y0024236D01*
X0371516Y0024058D01*
X0371436Y0023882D01*
X0371351Y0023709D01*
X0371262Y0023537D01*
X0371169Y0023368D01*
X0371072Y0023201D01*
X0370970Y0023036D01*
X0370865Y0022874D01*
X0370756Y0022715D01*
X0370642Y0022558D01*
X0370525Y0022405D01*
X0370405Y0022254D01*
X0370280Y0022106D01*
X0370152Y0021961D01*
X0370021Y0021820D01*
X0369886Y0021681D01*
X0369747Y0021546D01*
X0369606Y0021415D01*
X0369461Y0021287D01*
X0369313Y0021162D01*
X0369162Y0021042D01*
X0369009Y0020925D01*
X0368852Y0020811D01*
X0368693Y0020702D01*
X0368531Y0020597D01*
X0368366Y0020495D01*
X0368199Y0020398D01*
X0368030Y0020305D01*
X0367858Y0020216D01*
X0367685Y0020131D01*
X0367509Y0020051D01*
X0367331Y0019974D01*
X0367152Y0019903D01*
X0366971Y0019835D01*
X0366788Y0019772D01*
X0366604Y0019714D01*
X0366418Y0019660D01*
X0366231Y0019611D01*
X0366043Y0019566D01*
X0365854Y0019526D01*
X0365664Y0019491D01*
X0365473Y0019460D01*
X0365282Y0019434D01*
X0365090Y0019413D01*
X0364897Y0019396D01*
X0364704Y0019384D01*
X0364511Y0019377D01*
X0364318Y0019375D01*
X0364125Y0019377D01*
X0363932Y0019384D01*
X0363739Y0019396D01*
X0363546Y0019413D01*
X0363354Y0019434D01*
X0363163Y0019460D01*
X0362972Y0019491D01*
X0362782Y0019526D01*
X0362593Y0019566D01*
X0362405Y0019611D01*
X0362218Y0019660D01*
X0362032Y0019714D01*
X0361848Y0019772D01*
X0361665Y0019835D01*
X0361484Y0019903D01*
X0361305Y0019974D01*
X0361127Y0020051D01*
X0360951Y0020131D01*
X0360778Y0020216D01*
X0360606Y0020305D01*
X0360437Y0020398D01*
X0360270Y0020495D01*
X0360105Y0020597D01*
X0359943Y0020702D01*
X0359784Y0020811D01*
X0359627Y0020925D01*
X0359474Y0021042D01*
X0359323Y0021162D01*
X0359175Y0021287D01*
X0359030Y0021415D01*
X0358889Y0021546D01*
X0358750Y0021681D01*
X0358615Y0021820D01*
X0358484Y0021961D01*
X0358356Y0022106D01*
X0358231Y0022254D01*
X0358111Y0022405D01*
X0357994Y0022558D01*
X0357880Y0022715D01*
X0357771Y0022874D01*
X0357666Y0023036D01*
X0357564Y0023201D01*
X0357467Y0023368D01*
X0357374Y0023537D01*
X0357285Y0023709D01*
X0357200Y0023882D01*
X0357120Y0024058D01*
X0357043Y0024236D01*
X0356972Y0024415D01*
X0356904Y0024596D01*
X0356841Y0024779D01*
X0356783Y0024963D01*
X0356729Y0025149D01*
X0356680Y0025336D01*
X0356635Y0025524D01*
X0356595Y0025713D01*
X0356560Y0025903D01*
X0356529Y0026094D01*
X0356503Y0026285D01*
X0356482Y0026477D01*
X0356465Y0026670D01*
X0356453Y0026863D01*
X0356446Y0027056D01*
X0356444Y0027249D01*
D12*
X0247949Y0183346D02*
X0245653Y0183346D01*
X0244506Y0184494D01*
X0245653Y0185641D02*
X0245653Y0187937D01*
X0247949Y0187937D01*
X0247949Y0185641D01*
X0245653Y0185641D01*
X0244506Y0186789D01*
X0244506Y0189085D01*
X0245653Y0190232D01*
X0247949Y0190232D01*
X0249097Y0189085D01*
X0249097Y0184494D01*
X0247949Y0183346D01*
X0242209Y0183346D02*
X0242209Y0190232D01*
X0239913Y0187937D01*
X0237618Y0190232D01*
X0237618Y0183346D01*
X0235321Y0183346D02*
X0235321Y0187937D01*
X0233026Y0187937D02*
X0231878Y0187937D01*
X0233026Y0187937D02*
X0235321Y0185641D01*
X0229581Y0184494D02*
X0228433Y0183346D01*
X0226138Y0183346D01*
X0224990Y0184494D01*
X0222693Y0183346D02*
X0222693Y0190232D01*
X0221546Y0187937D02*
X0219250Y0187937D01*
X0218103Y0186789D01*
X0218103Y0183346D01*
X0215806Y0184494D02*
X0214658Y0183346D01*
X0211215Y0183346D01*
X0211215Y0187937D01*
X0208918Y0187937D02*
X0205475Y0187937D01*
X0204327Y0186789D01*
X0204327Y0183346D01*
X0202030Y0184494D02*
X0200882Y0183346D01*
X0197439Y0183346D01*
X0195142Y0183346D02*
X0195142Y0190232D01*
X0197439Y0187937D02*
X0200882Y0187937D01*
X0202030Y0186789D01*
X0202030Y0184494D01*
X0208918Y0183346D02*
X0208918Y0187937D01*
X0215806Y0187937D02*
X0215806Y0184494D01*
X0221546Y0187937D02*
X0222693Y0186789D01*
X0224990Y0189085D02*
X0226138Y0190232D01*
X0228433Y0190232D01*
X0229581Y0189085D01*
X0229581Y0184494D01*
X0195142Y0185641D02*
X0191699Y0187937D01*
X0189402Y0187937D02*
X0189402Y0184494D01*
X0188255Y0183346D01*
X0184812Y0183346D01*
X0184812Y0187937D01*
X0182515Y0186789D02*
X0181367Y0187937D01*
X0179072Y0187937D01*
X0177924Y0186789D01*
X0177924Y0185641D01*
X0182515Y0185641D01*
X0182515Y0184494D02*
X0182515Y0186789D01*
X0182515Y0184494D02*
X0181367Y0183346D01*
X0179072Y0183346D01*
X0175627Y0184494D02*
X0175627Y0186789D01*
X0174479Y0187937D01*
X0172184Y0187937D01*
X0171036Y0186789D01*
X0171036Y0185641D01*
X0175627Y0185641D01*
X0175627Y0184494D02*
X0174479Y0183346D01*
X0172184Y0183346D01*
X0191699Y0183346D02*
X0195142Y0185641D01*
D13*
X0047559Y0143304D03*
X0037802Y0133547D03*
X0034549Y0130295D03*
X0026418Y0130295D03*
X0023166Y0133547D03*
X0014094Y0149124D03*
X0036261Y0160593D03*
X0040369Y0157255D03*
X0044306Y0159823D03*
X0027103Y0163760D03*
X0026418Y0169580D03*
X0034549Y0169580D03*
D14*
X0034549Y0169494D03*
X0030184Y0166070D03*
X0027103Y0163845D03*
X0036347Y0160422D03*
X0044306Y0159737D03*
X0043621Y0154088D03*
X0046874Y0150836D03*
X0046874Y0149039D03*
X0047558Y0143390D03*
X0031725Y0140052D03*
X0027103Y0135944D03*
X0023166Y0133633D03*
X0026419Y0130381D03*
X0034549Y0130381D03*
X0037802Y0133633D03*
X0020599Y0142534D03*
X0013409Y0143390D03*
X0014094Y0149039D03*
X0014094Y0150836D03*
X0017346Y0154088D03*
X0013409Y0156485D03*
X0026419Y0169494D03*
D15*
X0026418Y0169408D03*
X0030099Y0165899D03*
X0034549Y0169408D03*
X0041054Y0162904D03*
X0044306Y0159651D03*
X0043622Y0154174D03*
X0046874Y0150922D03*
X0046874Y0148953D03*
X0043622Y0145615D03*
X0037117Y0139196D03*
X0031725Y0140138D03*
X0027103Y0135858D03*
X0023851Y0139196D03*
X0017346Y0145615D03*
X0013409Y0143475D03*
X0014094Y0148953D03*
X0014094Y0150922D03*
X0017346Y0154174D03*
X0023851Y0160678D03*
X0019914Y0162904D03*
X0026418Y0130466D03*
X0034549Y0130466D03*
D16*
X0034549Y0130552D03*
X0027103Y0135773D03*
X0023851Y0139110D03*
X0023851Y0140394D03*
X0019914Y0137056D03*
X0031725Y0140223D03*
X0017346Y0148611D03*
X0015378Y0148867D03*
X0014950Y0149295D03*
X0014094Y0151007D03*
X0017346Y0154259D03*
X0020599Y0157426D03*
X0023851Y0160764D03*
X0019914Y0162818D03*
X0023166Y0166070D03*
X0030013Y0165728D03*
X0033865Y0164016D03*
X0037802Y0166070D03*
X0034549Y0169323D03*
X0036518Y0160165D03*
X0043621Y0154259D03*
X0046874Y0151007D03*
D17*
X0040369Y0157426D03*
X0044306Y0159566D03*
X0041054Y0162818D03*
X0026418Y0169323D03*
X0013495Y0156314D03*
X0015463Y0148782D03*
X0023765Y0140480D03*
X0037117Y0139110D03*
X0041054Y0137056D03*
X0026418Y0130552D03*
D18*
X0026461Y0130637D03*
X0023209Y0133804D03*
X0026804Y0137484D03*
X0026889Y0137399D03*
X0026975Y0137313D03*
X0027146Y0137142D03*
X0027231Y0137056D03*
X0027317Y0136971D03*
X0027745Y0136543D03*
X0027831Y0136457D03*
X0028002Y0136286D03*
X0028087Y0136201D03*
X0028173Y0136115D03*
X0028259Y0136029D03*
X0028344Y0135944D03*
X0028687Y0135601D03*
X0028772Y0135516D03*
X0028858Y0135430D03*
X0028943Y0135345D03*
X0029115Y0135173D03*
X0029200Y0135088D03*
X0029286Y0135002D03*
X0029714Y0134574D03*
X0029799Y0134489D03*
X0029970Y0134318D03*
X0028430Y0136971D03*
X0026718Y0137570D03*
X0026376Y0137912D03*
X0026290Y0137998D03*
X0026205Y0138083D03*
X0026119Y0138169D03*
X0026033Y0138255D03*
X0025862Y0138426D03*
X0025777Y0138511D03*
X0025691Y0139881D03*
X0024493Y0139710D03*
X0024407Y0139795D03*
X0023808Y0139025D03*
X0022439Y0141849D03*
X0022353Y0141935D03*
X0022268Y0142020D03*
X0022182Y0142106D03*
X0022096Y0142192D03*
X0021925Y0142363D03*
X0021840Y0142448D03*
X0021412Y0142876D03*
X0021326Y0142962D03*
X0021241Y0143047D03*
X0021069Y0143219D03*
X0020984Y0143304D03*
X0020898Y0143390D03*
X0020813Y0143475D03*
X0020385Y0143903D03*
X0020299Y0143989D03*
X0020213Y0144075D03*
X0019443Y0144845D03*
X0019357Y0144930D03*
X0019272Y0145016D03*
X0019101Y0145187D03*
X0019015Y0145273D03*
X0018930Y0145358D03*
X0018844Y0145444D03*
X0018502Y0145786D03*
X0018416Y0145872D03*
X0018331Y0145957D03*
X0018245Y0146043D03*
X0018159Y0146129D03*
X0017988Y0146300D03*
X0017903Y0146385D03*
X0017475Y0146813D03*
X0014051Y0148782D03*
X0019785Y0152804D03*
X0016704Y0159566D03*
X0027146Y0164102D03*
X0033907Y0164102D03*
X0037160Y0160764D03*
X0036561Y0160079D03*
X0034507Y0169237D03*
X0026461Y0169237D03*
X0046917Y0148782D03*
X0040412Y0142363D03*
X0044263Y0140309D03*
X0037160Y0139025D03*
X0031682Y0140309D03*
X0033907Y0135773D03*
X0034507Y0130637D03*
X0016704Y0140309D03*
X0020556Y0142363D03*
D19*
X0026632Y0145273D03*
X0016961Y0148867D03*
X0031425Y0134831D03*
X0037759Y0133975D03*
X0034506Y0130723D03*
X0029885Y0165386D03*
D20*
X0033907Y0164188D03*
X0037160Y0160935D03*
X0046917Y0148611D03*
X0047516Y0143732D03*
X0044263Y0140565D03*
X0037160Y0138854D03*
X0035448Y0138854D03*
X0034421Y0137827D03*
X0033480Y0136885D03*
X0033223Y0136628D03*
X0032452Y0135858D03*
X0031511Y0134917D03*
X0031254Y0134660D03*
X0030484Y0133975D03*
X0030484Y0133890D03*
X0026461Y0130723D03*
X0023209Y0133975D03*
X0023808Y0138854D03*
X0023209Y0141250D03*
X0016704Y0140565D03*
X0016704Y0140480D03*
X0013452Y0143732D03*
X0017475Y0146984D03*
X0014051Y0148611D03*
X0013452Y0156142D03*
X0031682Y0140480D03*
D21*
X0046917Y0148525D03*
X0034506Y0130809D03*
D22*
X0026461Y0130809D03*
X0014051Y0148525D03*
X0027146Y0164273D03*
D23*
X0037160Y0161192D03*
X0037160Y0161106D03*
X0036818Y0159480D03*
X0016705Y0159223D03*
X0013452Y0155971D03*
X0016533Y0149210D03*
X0017475Y0147156D03*
X0022268Y0146385D03*
X0029286Y0145957D03*
X0020556Y0141935D03*
X0025691Y0140052D03*
X0028430Y0137399D03*
X0033907Y0135516D03*
X0030484Y0134146D03*
X0034506Y0130894D03*
X0037759Y0134146D03*
X0040412Y0141935D03*
X0013452Y0143903D03*
D24*
X0017346Y0145273D03*
X0023081Y0141507D03*
X0019914Y0137399D03*
X0027103Y0135516D03*
X0026418Y0130894D03*
X0035662Y0139282D03*
X0031725Y0140565D03*
X0029328Y0145872D03*
X0027018Y0146385D03*
X0026761Y0145358D03*
X0014094Y0151349D03*
X0017346Y0154516D03*
X0023851Y0161106D03*
X0019914Y0162476D03*
X0023166Y0165728D03*
X0026418Y0168980D03*
X0034549Y0168980D03*
X0037802Y0165728D03*
X0041054Y0162476D03*
X0044306Y0159223D03*
X0040369Y0157854D03*
X0043622Y0154516D03*
X0047559Y0155971D03*
X0046874Y0151349D03*
X0043622Y0145273D03*
X0041054Y0137399D03*
D25*
X0035705Y0139453D03*
X0040412Y0141849D03*
X0044263Y0140737D03*
X0047516Y0143989D03*
X0046917Y0148440D03*
X0029200Y0146129D03*
X0029115Y0146214D03*
X0026889Y0145444D03*
X0024578Y0144759D03*
X0022268Y0146300D03*
X0018844Y0148611D03*
X0016448Y0149295D03*
X0016619Y0151863D03*
X0016704Y0151949D03*
X0016790Y0152034D03*
X0017132Y0152377D03*
X0017304Y0152548D03*
X0017389Y0152633D03*
X0017475Y0152719D03*
X0013452Y0155886D03*
X0016704Y0159138D03*
X0029714Y0164958D03*
X0013452Y0143989D03*
X0016704Y0140737D03*
X0020556Y0141849D03*
X0028430Y0137484D03*
X0033907Y0135430D03*
X0030484Y0134232D03*
X0026461Y0130980D03*
X0023209Y0134232D03*
X0034507Y0130980D03*
X0037759Y0134232D03*
D26*
X0034549Y0131065D03*
X0027103Y0135345D03*
X0023851Y0138597D03*
X0025648Y0140138D03*
X0019914Y0137570D03*
X0031725Y0140737D03*
X0029072Y0146300D03*
X0017346Y0145102D03*
X0016490Y0151692D03*
X0017346Y0154687D03*
X0013409Y0155800D03*
X0020599Y0158025D03*
X0023166Y0165557D03*
X0027103Y0164444D03*
X0034549Y0168809D03*
X0043621Y0154687D03*
X0047558Y0155800D03*
X0046874Y0148354D03*
X0043621Y0145102D03*
D27*
X0037117Y0138597D03*
X0041054Y0137570D03*
X0026418Y0131065D03*
X0027018Y0146214D03*
X0022225Y0146214D03*
X0017432Y0147327D03*
X0016576Y0151777D03*
X0017603Y0152804D03*
X0033865Y0164444D03*
X0037802Y0165557D03*
X0044306Y0159052D03*
X0040369Y0158025D03*
X0026418Y0168809D03*
D28*
X0027060Y0164615D03*
X0037074Y0158967D03*
X0037074Y0158881D03*
X0043664Y0154859D03*
X0047601Y0155629D03*
X0027060Y0146043D03*
X0014137Y0151606D03*
X0040412Y0141678D03*
X0037759Y0134403D03*
X0034506Y0131151D03*
D29*
X0033907Y0135259D03*
X0026461Y0131151D03*
X0025691Y0140223D03*
X0026033Y0141764D03*
X0020556Y0141678D03*
X0016704Y0140908D03*
X0017304Y0144930D03*
X0018844Y0148782D03*
X0016191Y0151264D03*
X0017304Y0154859D03*
X0016704Y0158967D03*
X0023894Y0161363D03*
X0029628Y0164701D03*
X0033907Y0164615D03*
X0046831Y0151606D03*
X0044263Y0140908D03*
X0024750Y0144845D03*
D30*
X0028772Y0146642D03*
X0029885Y0143047D03*
X0030997Y0141764D03*
X0041011Y0137741D03*
X0034506Y0131236D03*
X0027060Y0135088D03*
X0043664Y0144845D03*
X0043664Y0154944D03*
X0047601Y0155543D03*
X0041011Y0162133D03*
X0016105Y0151093D03*
X0014137Y0151692D03*
D31*
X0016148Y0151178D03*
X0016234Y0151349D03*
X0018031Y0153061D03*
X0013409Y0155629D03*
X0020599Y0158196D03*
X0023166Y0165300D03*
X0023166Y0165386D03*
X0027103Y0164701D03*
X0029585Y0164615D03*
X0033865Y0164701D03*
X0037802Y0165300D03*
X0037802Y0165386D03*
X0037117Y0161363D03*
X0037117Y0158796D03*
X0040369Y0158196D03*
X0044306Y0158881D03*
X0034549Y0168638D03*
X0026419Y0168638D03*
X0018887Y0148867D03*
X0014094Y0148183D03*
X0013409Y0144246D03*
X0022139Y0145957D03*
X0027103Y0145957D03*
X0031725Y0140908D03*
X0037117Y0138426D03*
X0037802Y0134489D03*
X0033865Y0135173D03*
X0027103Y0135173D03*
X0026419Y0131236D03*
X0023166Y0134489D03*
X0023851Y0138426D03*
X0043621Y0144930D03*
X0047558Y0144246D03*
X0046874Y0148183D03*
D32*
X0043664Y0144759D03*
X0044264Y0141079D03*
X0041011Y0137827D03*
X0033907Y0135002D03*
X0028430Y0137741D03*
X0028344Y0141849D03*
X0028344Y0141935D03*
X0030826Y0141935D03*
X0031254Y0141507D03*
X0031340Y0141421D03*
X0031425Y0141336D03*
X0031511Y0141250D03*
X0031597Y0141165D03*
X0031682Y0141079D03*
X0024835Y0144930D03*
X0024835Y0145016D03*
X0024835Y0145102D03*
X0022182Y0145701D03*
X0016705Y0141079D03*
X0013452Y0144417D03*
X0019786Y0152548D03*
X0020556Y0158282D03*
X0016705Y0158796D03*
X0013452Y0155458D03*
X0029542Y0164444D03*
X0037245Y0158624D03*
X0041011Y0162048D03*
X0034506Y0131322D03*
X0026461Y0131322D03*
D33*
X0026461Y0131408D03*
X0023209Y0134660D03*
X0019957Y0137912D03*
X0020556Y0141507D03*
X0016704Y0141165D03*
X0017132Y0148012D03*
X0018930Y0149124D03*
X0015848Y0150665D03*
X0014051Y0147926D03*
X0028515Y0141507D03*
X0028430Y0137827D03*
X0033907Y0134917D03*
X0034507Y0131408D03*
X0041011Y0137912D03*
X0035705Y0139795D03*
X0040412Y0141507D03*
X0044263Y0141165D03*
X0046917Y0147926D03*
X0037160Y0161620D03*
X0016704Y0158710D03*
D34*
X0016705Y0158624D03*
X0018930Y0149295D03*
X0017475Y0147755D03*
X0013452Y0144502D03*
X0016705Y0141250D03*
X0020556Y0141421D03*
X0023808Y0138083D03*
X0028430Y0137912D03*
X0033907Y0134831D03*
X0037160Y0138083D03*
X0040412Y0141421D03*
X0044264Y0141250D03*
X0046917Y0147840D03*
X0028601Y0141336D03*
X0026461Y0131493D03*
X0034506Y0131493D03*
X0037160Y0161705D03*
D35*
X0037160Y0161791D03*
X0015677Y0150322D03*
X0018930Y0149381D03*
X0017389Y0147926D03*
X0017475Y0147840D03*
X0029714Y0142705D03*
X0023808Y0137998D03*
X0034506Y0131579D03*
X0037759Y0134831D03*
X0037160Y0137998D03*
X0040412Y0141336D03*
X0046917Y0147755D03*
X0013452Y0155286D03*
D36*
X0016704Y0158539D03*
X0029371Y0164016D03*
X0037417Y0158196D03*
X0014051Y0147755D03*
X0016704Y0141336D03*
X0020556Y0141336D03*
X0025605Y0140822D03*
X0025605Y0140737D03*
X0028687Y0141079D03*
X0028687Y0141165D03*
X0028430Y0137998D03*
X0023209Y0134831D03*
X0026461Y0131579D03*
X0044263Y0141336D03*
D37*
X0040369Y0141250D03*
X0035662Y0140052D03*
X0028729Y0140993D03*
X0025563Y0140993D03*
X0025563Y0140908D03*
X0025563Y0141079D03*
X0020599Y0141250D03*
X0019914Y0138169D03*
X0028473Y0138083D03*
X0034549Y0131664D03*
X0043621Y0144502D03*
X0046874Y0152120D03*
X0047558Y0155201D03*
X0044306Y0158453D03*
X0040369Y0158539D03*
X0037459Y0158111D03*
X0029329Y0163931D03*
X0027103Y0165129D03*
X0033865Y0165129D03*
X0037802Y0164958D03*
X0023851Y0161877D03*
X0019914Y0161705D03*
X0020599Y0158539D03*
X0016662Y0158453D03*
X0023166Y0164958D03*
X0014094Y0152120D03*
X0015634Y0150237D03*
X0015634Y0150151D03*
X0015720Y0149552D03*
X0017346Y0144502D03*
X0021968Y0145273D03*
X0021968Y0145358D03*
D38*
X0016704Y0141507D03*
X0016704Y0141421D03*
X0013452Y0144674D03*
X0014051Y0147669D03*
X0019785Y0152377D03*
X0013452Y0155201D03*
X0020641Y0158624D03*
X0029286Y0163845D03*
X0037160Y0161877D03*
X0040326Y0158624D03*
X0037502Y0158025D03*
X0046917Y0147669D03*
X0047516Y0144674D03*
X0044263Y0141507D03*
X0044263Y0141421D03*
X0037160Y0137912D03*
X0026461Y0131664D03*
X0023209Y0134917D03*
X0023808Y0137912D03*
D39*
X0026461Y0131750D03*
X0034506Y0131750D03*
X0044264Y0141593D03*
D40*
X0040412Y0140993D03*
X0037160Y0137741D03*
X0033907Y0134574D03*
X0034507Y0131836D03*
X0026461Y0131836D03*
X0023209Y0135088D03*
X0023808Y0137741D03*
X0028430Y0138340D03*
X0029628Y0142534D03*
X0021754Y0144845D03*
X0013452Y0144845D03*
X0013452Y0155030D03*
X0029200Y0163588D03*
X0026461Y0168039D03*
X0034507Y0168039D03*
X0037160Y0162048D03*
X0037673Y0157683D03*
X0047516Y0144845D03*
D41*
X0044264Y0141678D03*
X0040412Y0140908D03*
X0041011Y0138511D03*
X0037759Y0135173D03*
X0034506Y0131921D03*
X0026461Y0131921D03*
X0028430Y0138426D03*
X0016705Y0141678D03*
X0013452Y0144930D03*
X0013452Y0154859D03*
X0016705Y0158196D03*
X0037759Y0157512D03*
X0041011Y0161363D03*
D42*
X0019186Y0149980D03*
X0013452Y0145016D03*
X0037759Y0135259D03*
X0034506Y0132007D03*
X0040412Y0140822D03*
X0046917Y0147412D03*
D43*
X0044263Y0141764D03*
X0035705Y0140480D03*
X0028943Y0140480D03*
X0028430Y0138511D03*
X0023209Y0135259D03*
X0026461Y0132007D03*
X0033907Y0134403D03*
X0020556Y0140822D03*
X0016704Y0141764D03*
X0017304Y0155714D03*
X0029115Y0163332D03*
D44*
X0027060Y0165557D03*
X0043664Y0155800D03*
X0047601Y0154687D03*
X0043664Y0143989D03*
X0040412Y0140737D03*
X0037759Y0135345D03*
X0034506Y0132092D03*
X0019186Y0150151D03*
X0014137Y0152548D03*
D45*
X0013452Y0154687D03*
X0017304Y0155800D03*
X0019871Y0152034D03*
X0017304Y0143989D03*
X0016704Y0141849D03*
X0020556Y0140737D03*
X0028943Y0140394D03*
X0029543Y0142448D03*
X0033907Y0134318D03*
X0026461Y0132092D03*
X0044263Y0141849D03*
X0046831Y0152548D03*
X0033907Y0165557D03*
D46*
X0033907Y0165642D03*
X0037844Y0164359D03*
X0041011Y0161192D03*
X0043664Y0155886D03*
X0047601Y0154602D03*
X0046831Y0152633D03*
X0043664Y0143903D03*
X0044264Y0141935D03*
X0037074Y0137484D03*
X0033907Y0134232D03*
X0033907Y0134146D03*
X0034506Y0132178D03*
X0027060Y0134146D03*
X0026461Y0132178D03*
X0029029Y0140223D03*
X0017303Y0143903D03*
X0016705Y0141935D03*
X0019871Y0151949D03*
X0017303Y0155886D03*
X0016705Y0157940D03*
X0013452Y0154602D03*
X0014137Y0152633D03*
X0019957Y0161192D03*
X0023894Y0162390D03*
X0023123Y0164359D03*
X0027060Y0165642D03*
X0028943Y0162989D03*
D47*
X0043664Y0155971D03*
X0047601Y0154516D03*
X0043664Y0143818D03*
X0029457Y0142363D03*
X0029029Y0140052D03*
X0027060Y0134061D03*
X0034506Y0132264D03*
X0014137Y0152719D03*
D48*
X0013452Y0154516D03*
X0017304Y0155971D03*
X0019871Y0151863D03*
X0017304Y0143818D03*
X0016704Y0142020D03*
X0019957Y0138768D03*
X0033907Y0134061D03*
X0026461Y0132264D03*
X0041011Y0138768D03*
X0044263Y0142020D03*
X0046831Y0152719D03*
X0041011Y0161106D03*
X0033907Y0165728D03*
X0028943Y0162904D03*
X0023894Y0162476D03*
X0019957Y0161106D03*
D49*
X0028858Y0162733D03*
X0037759Y0164188D03*
X0041011Y0161021D03*
X0019443Y0150665D03*
X0019443Y0150579D03*
X0026804Y0149638D03*
X0026889Y0149552D03*
X0024151Y0146728D03*
X0014137Y0152804D03*
X0029029Y0139966D03*
X0034506Y0132349D03*
X0041011Y0138854D03*
X0040412Y0140565D03*
D50*
X0044263Y0142106D03*
X0035705Y0140737D03*
X0024065Y0146642D03*
X0019529Y0150750D03*
X0017304Y0143732D03*
X0016704Y0142106D03*
X0019957Y0138854D03*
X0026461Y0132349D03*
X0033907Y0133975D03*
X0046831Y0152804D03*
X0023894Y0162561D03*
X0023209Y0164188D03*
X0019957Y0161021D03*
D51*
X0026119Y0159908D03*
X0028772Y0162561D03*
X0037160Y0162647D03*
X0019614Y0150922D03*
X0026804Y0149381D03*
X0024407Y0146899D03*
X0029457Y0142192D03*
X0029029Y0139881D03*
X0026461Y0132435D03*
X0034506Y0132435D03*
X0041011Y0138939D03*
X0040412Y0140480D03*
X0044264Y0142192D03*
X0046917Y0146899D03*
X0016705Y0142192D03*
X0013452Y0154345D03*
D52*
X0019700Y0151093D03*
X0019785Y0151178D03*
X0019871Y0151349D03*
X0026547Y0150066D03*
X0026633Y0149980D03*
X0026718Y0149210D03*
X0014051Y0146813D03*
X0016704Y0142277D03*
X0023808Y0137056D03*
X0023209Y0135773D03*
X0026461Y0132520D03*
X0033907Y0133804D03*
X0034507Y0132520D03*
X0037160Y0137056D03*
X0040412Y0140394D03*
X0044263Y0142277D03*
X0046917Y0146813D03*
X0029543Y0142020D03*
X0028687Y0162390D03*
X0023808Y0162733D03*
X0026461Y0167269D03*
X0034507Y0167269D03*
X0037160Y0162733D03*
D53*
X0037160Y0162818D03*
X0044264Y0157426D03*
X0043579Y0156314D03*
X0046917Y0146728D03*
X0047516Y0145615D03*
X0044264Y0142448D03*
X0044264Y0142363D03*
X0037160Y0136971D03*
X0037759Y0135858D03*
X0034506Y0132606D03*
X0026461Y0132606D03*
X0023209Y0135858D03*
X0023808Y0136971D03*
X0016705Y0142363D03*
X0016705Y0142448D03*
X0013452Y0145615D03*
X0014051Y0146728D03*
X0026461Y0150237D03*
X0026461Y0150322D03*
X0016705Y0157426D03*
X0020642Y0159566D03*
X0026033Y0159651D03*
D54*
X0025948Y0159480D03*
X0028601Y0162133D03*
X0026632Y0148953D03*
X0037759Y0135944D03*
X0034506Y0132691D03*
D55*
X0037160Y0136885D03*
X0026461Y0132691D03*
X0023209Y0135944D03*
X0023808Y0136885D03*
X0016704Y0142534D03*
X0013452Y0145701D03*
X0014051Y0146642D03*
X0026461Y0159994D03*
X0037160Y0162904D03*
X0040326Y0159651D03*
X0046917Y0146642D03*
X0047516Y0145701D03*
D56*
X0046917Y0146557D03*
X0034506Y0132777D03*
X0016790Y0142620D03*
D57*
X0014051Y0146557D03*
X0028858Y0139624D03*
X0026461Y0132777D03*
D58*
X0026590Y0132948D03*
X0026675Y0133034D03*
X0026761Y0133119D03*
X0027103Y0133547D03*
X0034293Y0133034D03*
X0034464Y0132863D03*
X0037459Y0136457D03*
X0037374Y0136543D03*
X0040455Y0139966D03*
X0041054Y0139367D03*
X0035662Y0141250D03*
X0028644Y0139538D03*
X0023594Y0136543D03*
X0023509Y0136457D03*
X0020342Y0139710D03*
X0020428Y0139795D03*
X0020513Y0139881D03*
X0020085Y0139538D03*
X0020000Y0139453D03*
X0016833Y0142705D03*
X0016918Y0142791D03*
X0017261Y0143219D03*
X0017346Y0143304D03*
X0013837Y0146300D03*
X0013752Y0146214D03*
X0013666Y0146129D03*
X0013923Y0146385D03*
X0014094Y0153318D03*
X0013923Y0153489D03*
X0013837Y0153575D03*
X0013752Y0153660D03*
X0013666Y0153746D03*
X0013580Y0153831D03*
X0013495Y0154003D03*
X0016747Y0157169D03*
X0016833Y0157084D03*
X0016918Y0156998D03*
X0020428Y0159994D03*
X0020513Y0159908D03*
X0019914Y0160507D03*
X0023166Y0163760D03*
X0023252Y0163674D03*
X0023337Y0163588D03*
X0023423Y0163503D03*
X0023509Y0163417D03*
X0023765Y0163160D03*
X0023851Y0163075D03*
X0028558Y0161962D03*
X0037202Y0163160D03*
X0037459Y0163332D03*
X0037802Y0163760D03*
X0041054Y0160507D03*
X0040797Y0160251D03*
X0040541Y0159994D03*
X0040455Y0159908D03*
X0044050Y0156998D03*
X0044135Y0157084D03*
X0043622Y0156485D03*
X0046874Y0153318D03*
X0047131Y0153489D03*
X0047302Y0153746D03*
X0047387Y0153831D03*
X0047473Y0153917D03*
X0047559Y0154003D03*
X0046959Y0146471D03*
X0047131Y0146300D03*
X0047216Y0146214D03*
X0047302Y0146129D03*
X0047387Y0146043D03*
X0043622Y0143304D03*
X0044135Y0142705D03*
X0026590Y0148696D03*
X0026761Y0166670D03*
X0026675Y0166755D03*
X0026590Y0166841D03*
X0034293Y0166755D03*
X0034464Y0166926D03*
D59*
X0034378Y0166841D03*
X0026504Y0166926D03*
X0020171Y0160251D03*
X0020599Y0159823D03*
X0026076Y0150836D03*
X0044221Y0157169D03*
X0034378Y0132948D03*
X0026504Y0132863D03*
D60*
X0026804Y0133205D03*
X0026889Y0133291D03*
X0026975Y0133376D03*
X0027060Y0133462D03*
X0023380Y0136286D03*
X0023295Y0136201D03*
X0023723Y0136628D03*
X0033907Y0133547D03*
X0033907Y0133462D03*
X0034079Y0133291D03*
X0034250Y0133119D03*
X0037588Y0136286D03*
X0037502Y0136372D03*
X0037759Y0136115D03*
X0040669Y0139710D03*
X0040583Y0139795D03*
X0041011Y0139453D03*
X0044092Y0142791D03*
X0043921Y0142962D03*
X0043836Y0143047D03*
X0043750Y0143133D03*
X0043664Y0143219D03*
X0047430Y0145957D03*
X0043664Y0156570D03*
X0043750Y0156656D03*
X0043836Y0156741D03*
X0043921Y0156827D03*
X0040583Y0160079D03*
X0040669Y0160165D03*
X0041011Y0160422D03*
X0037759Y0163674D03*
X0037588Y0163503D03*
X0037502Y0163417D03*
X0037160Y0163075D03*
X0033907Y0166327D03*
X0033993Y0166413D03*
X0034079Y0166498D03*
X0034250Y0166670D03*
X0027060Y0166327D03*
X0026975Y0166413D03*
X0026889Y0166498D03*
X0026804Y0166584D03*
X0028516Y0161877D03*
X0020299Y0160165D03*
X0016961Y0156913D03*
X0017047Y0156827D03*
X0017132Y0156741D03*
X0017218Y0156656D03*
X0013538Y0153917D03*
X0025948Y0151007D03*
X0026033Y0150922D03*
X0026547Y0148611D03*
X0017218Y0143133D03*
X0017132Y0143047D03*
X0017047Y0142962D03*
X0016961Y0142876D03*
X0013538Y0145957D03*
X0013452Y0145872D03*
D61*
X0013623Y0146043D03*
X0023466Y0136372D03*
X0023209Y0136115D03*
X0034164Y0133205D03*
X0037673Y0136201D03*
X0037245Y0136628D03*
X0040498Y0139881D03*
X0040926Y0139538D03*
X0044007Y0142876D03*
X0047516Y0145872D03*
X0047088Y0146385D03*
X0044007Y0156913D03*
X0037673Y0163588D03*
X0034164Y0166584D03*
X0019957Y0160422D03*
X0020385Y0160079D03*
X0017304Y0156570D03*
D62*
X0034036Y0133376D03*
D63*
X0033907Y0136029D03*
X0030484Y0133547D03*
X0019957Y0136800D03*
X0016704Y0140052D03*
X0017304Y0145786D03*
X0019101Y0148268D03*
X0023894Y0144502D03*
X0026290Y0145016D03*
X0041011Y0136800D03*
X0044263Y0140052D03*
X0046831Y0150750D03*
X0037160Y0160507D03*
X0036304Y0160507D03*
X0033907Y0163845D03*
X0041011Y0163075D03*
X0023894Y0160507D03*
X0019957Y0163075D03*
X0016704Y0159823D03*
D64*
X0016704Y0157255D03*
X0017304Y0156485D03*
X0026119Y0150750D03*
X0044263Y0157255D03*
X0047259Y0153660D03*
X0047516Y0145786D03*
X0033907Y0133633D03*
X0023209Y0136029D03*
X0019957Y0139367D03*
X0020556Y0139966D03*
X0026461Y0167012D03*
X0026461Y0167097D03*
D65*
X0023209Y0166156D03*
X0019957Y0162989D03*
X0023894Y0160593D03*
X0027146Y0163931D03*
X0033907Y0163931D03*
X0016704Y0159737D03*
X0017304Y0145701D03*
X0026718Y0142106D03*
X0023894Y0139282D03*
X0019957Y0136885D03*
X0016704Y0140138D03*
X0028430Y0136800D03*
X0033907Y0135944D03*
X0030484Y0133633D03*
X0044263Y0140138D03*
X0047516Y0143475D03*
D66*
X0044306Y0142534D03*
X0043621Y0143390D03*
X0040369Y0140138D03*
X0035662Y0141165D03*
X0027103Y0133633D03*
X0020599Y0140052D03*
X0020599Y0140138D03*
X0019914Y0139282D03*
X0017346Y0143390D03*
X0026675Y0148867D03*
X0026247Y0150579D03*
X0026162Y0150665D03*
X0014094Y0153232D03*
X0020599Y0159737D03*
X0019914Y0160593D03*
X0023166Y0163845D03*
X0023851Y0162989D03*
X0028558Y0162048D03*
X0037802Y0163845D03*
X0040369Y0159737D03*
X0037288Y0157169D03*
X0046874Y0153232D03*
X0047558Y0154088D03*
D67*
X0030355Y0152462D03*
X0017432Y0148525D03*
X0023166Y0133719D03*
X0037802Y0133719D03*
D68*
X0033865Y0133719D03*
X0027103Y0133719D03*
D69*
X0030484Y0133719D03*
D70*
X0029885Y0134403D03*
X0029029Y0135259D03*
X0027916Y0136372D03*
X0027060Y0137228D03*
X0025948Y0138340D03*
X0022011Y0142277D03*
X0021155Y0143133D03*
X0019186Y0145102D03*
X0018074Y0146214D03*
X0037759Y0133804D03*
D71*
X0037759Y0133890D03*
X0030484Y0133804D03*
X0028430Y0137056D03*
X0023808Y0138939D03*
X0023466Y0140822D03*
X0023380Y0140993D03*
X0016705Y0140394D03*
X0013452Y0143647D03*
X0017475Y0146899D03*
X0017047Y0148782D03*
X0015677Y0148611D03*
X0014051Y0148696D03*
X0013452Y0156228D03*
X0016705Y0159395D03*
X0016705Y0159480D03*
X0020642Y0157597D03*
X0029970Y0165557D03*
X0037160Y0160850D03*
X0044264Y0159395D03*
X0046917Y0148696D03*
X0047516Y0143647D03*
X0044264Y0140480D03*
X0044264Y0140394D03*
X0037160Y0138939D03*
X0031682Y0140394D03*
X0026975Y0146471D03*
X0023209Y0133890D03*
D72*
X0023851Y0137142D03*
X0019914Y0139025D03*
X0020599Y0140394D03*
X0029500Y0142106D03*
X0035662Y0140908D03*
X0027103Y0133804D03*
X0026761Y0149295D03*
X0026675Y0149894D03*
X0019914Y0151521D03*
X0019657Y0151007D03*
X0017346Y0156228D03*
X0016662Y0157597D03*
X0020599Y0159395D03*
X0019914Y0160850D03*
X0023166Y0164102D03*
X0027103Y0165985D03*
X0028729Y0162476D03*
X0033865Y0165985D03*
X0034549Y0167354D03*
X0037802Y0164102D03*
X0026076Y0159823D03*
X0014094Y0152976D03*
X0043621Y0156228D03*
X0046874Y0152976D03*
D73*
X0047516Y0154345D03*
X0026718Y0149809D03*
X0019957Y0151606D03*
X0014051Y0146899D03*
X0019957Y0138939D03*
X0033907Y0133890D03*
X0035705Y0140822D03*
D74*
X0037117Y0137228D03*
X0029414Y0142277D03*
X0023851Y0137228D03*
X0027103Y0133890D03*
X0017346Y0143647D03*
X0013409Y0145444D03*
X0014094Y0146984D03*
X0019572Y0150836D03*
X0019914Y0151692D03*
X0026761Y0149723D03*
X0024279Y0146813D03*
X0014094Y0152890D03*
X0017346Y0156142D03*
X0019914Y0160935D03*
X0023851Y0162647D03*
X0027103Y0165899D03*
X0026418Y0167440D03*
X0028815Y0162647D03*
X0033865Y0165899D03*
X0034549Y0167440D03*
X0037117Y0162561D03*
X0041054Y0160935D03*
X0044306Y0157683D03*
X0043622Y0156142D03*
X0046874Y0152890D03*
X0046874Y0146984D03*
X0047559Y0145444D03*
X0043622Y0143732D03*
X0043622Y0143647D03*
D75*
X0047558Y0145358D03*
X0046874Y0147070D03*
X0043621Y0156057D03*
X0044306Y0157768D03*
X0037716Y0157255D03*
X0028901Y0162818D03*
X0027103Y0165814D03*
X0026419Y0167525D03*
X0033865Y0165814D03*
X0034549Y0167525D03*
X0016662Y0157768D03*
X0017346Y0156057D03*
X0019914Y0151777D03*
X0014094Y0147070D03*
X0013409Y0145358D03*
X0021283Y0144674D03*
X0020599Y0140565D03*
X0023851Y0137313D03*
X0023166Y0135601D03*
X0027103Y0133975D03*
X0037802Y0135601D03*
D76*
X0037759Y0134061D03*
X0037160Y0138768D03*
X0040412Y0142020D03*
X0025691Y0139966D03*
X0023808Y0138768D03*
X0023123Y0141421D03*
X0024407Y0144674D03*
X0017475Y0147070D03*
X0013452Y0143818D03*
X0013452Y0156057D03*
X0037160Y0161021D03*
X0034506Y0169066D03*
D77*
X0036732Y0159651D03*
X0036732Y0159566D03*
X0018844Y0148440D03*
X0022353Y0146471D03*
X0020385Y0144160D03*
X0020556Y0142020D03*
X0028430Y0137313D03*
X0033907Y0135601D03*
X0030484Y0134061D03*
X0023209Y0134061D03*
X0047516Y0143818D03*
D78*
X0047516Y0143903D03*
X0023209Y0134146D03*
X0027146Y0164359D03*
D79*
X0028986Y0163160D03*
X0028986Y0163075D03*
X0026418Y0167697D03*
X0023166Y0164444D03*
X0034549Y0167697D03*
X0037802Y0164444D03*
X0040369Y0159138D03*
X0044306Y0157940D03*
X0047559Y0145187D03*
X0035748Y0140565D03*
X0028986Y0140309D03*
X0023166Y0135430D03*
X0027103Y0134232D03*
X0037802Y0135430D03*
X0014094Y0147241D03*
X0019229Y0150237D03*
X0019229Y0150322D03*
D80*
X0017731Y0152890D03*
X0016362Y0151521D03*
X0016362Y0149381D03*
X0016619Y0148183D03*
X0013452Y0144075D03*
X0016705Y0140822D03*
X0020556Y0141764D03*
X0028430Y0137570D03*
X0033907Y0135345D03*
X0037759Y0134318D03*
X0040412Y0141764D03*
X0044264Y0140822D03*
X0029029Y0146385D03*
X0043664Y0154773D03*
X0041011Y0162219D03*
X0029714Y0164872D03*
X0016705Y0159052D03*
D81*
X0020599Y0157683D03*
X0023851Y0160935D03*
X0019914Y0162647D03*
X0046874Y0151178D03*
X0035662Y0139110D03*
X0035491Y0138939D03*
X0035234Y0138597D03*
X0035063Y0138511D03*
X0034806Y0138255D03*
X0034378Y0137741D03*
X0033950Y0137399D03*
X0033693Y0137142D03*
X0033522Y0136971D03*
X0033094Y0136543D03*
X0032838Y0136286D03*
X0032410Y0135773D03*
X0031982Y0135430D03*
X0031725Y0135173D03*
X0031554Y0135002D03*
X0031126Y0134574D03*
X0030869Y0134318D03*
X0028473Y0137142D03*
X0023252Y0141165D03*
X0020599Y0142192D03*
X0017346Y0145444D03*
X0019914Y0137228D03*
D82*
X0019999Y0138597D03*
X0023851Y0137570D03*
X0023166Y0135345D03*
X0027103Y0134318D03*
X0040968Y0138597D03*
X0043621Y0144075D03*
X0047558Y0145102D03*
X0046874Y0147327D03*
X0047558Y0154773D03*
X0043621Y0155714D03*
X0044306Y0158025D03*
X0040369Y0159052D03*
X0037802Y0164530D03*
X0033865Y0165471D03*
X0034549Y0167782D03*
X0027103Y0165471D03*
X0026419Y0167782D03*
X0023166Y0164530D03*
X0020599Y0159052D03*
X0016662Y0158025D03*
X0013409Y0154773D03*
X0019229Y0150066D03*
X0014094Y0147327D03*
X0013409Y0145102D03*
X0017346Y0144075D03*
D83*
X0018844Y0148696D03*
X0016448Y0151606D03*
X0014051Y0148354D03*
X0017304Y0154773D03*
X0019957Y0162219D03*
X0036989Y0159223D03*
X0036989Y0159138D03*
X0047516Y0144075D03*
X0035705Y0139538D03*
X0023209Y0134318D03*
D84*
X0025563Y0138768D03*
X0023337Y0141079D03*
X0032923Y0136372D03*
X0033009Y0136457D03*
X0032752Y0136201D03*
X0032667Y0136115D03*
X0032581Y0136029D03*
X0032495Y0135944D03*
X0032153Y0135601D03*
X0032067Y0135516D03*
X0031896Y0135345D03*
X0031811Y0135259D03*
X0031639Y0135088D03*
X0031040Y0134489D03*
X0030955Y0134403D03*
X0033437Y0136800D03*
X0033608Y0137056D03*
X0033779Y0137228D03*
X0033865Y0137313D03*
X0034036Y0137484D03*
X0034121Y0137570D03*
X0034464Y0137912D03*
X0034549Y0137998D03*
X0034635Y0138083D03*
X0034720Y0138169D03*
X0034892Y0138340D03*
X0034977Y0138426D03*
X0035405Y0138768D03*
X0035576Y0139025D03*
X0040369Y0142192D03*
X0043622Y0145444D03*
X0041054Y0137228D03*
X0018801Y0148354D03*
X0014094Y0151178D03*
X0027103Y0164188D03*
X0029928Y0165471D03*
X0023166Y0165899D03*
X0037802Y0165899D03*
X0041054Y0162647D03*
X0036604Y0159908D03*
X0036604Y0159823D03*
X0040369Y0157683D03*
X0040369Y0157597D03*
X0047559Y0156142D03*
D85*
X0047559Y0154859D03*
X0046874Y0152377D03*
X0043622Y0155629D03*
X0044306Y0158111D03*
X0040369Y0158967D03*
X0037802Y0157426D03*
X0037117Y0162219D03*
X0037802Y0164615D03*
X0033865Y0165386D03*
X0034549Y0167868D03*
X0027103Y0165386D03*
X0026418Y0167868D03*
X0023166Y0164615D03*
X0023851Y0162219D03*
X0029157Y0163417D03*
X0017346Y0155629D03*
X0014094Y0152377D03*
X0019144Y0149894D03*
X0019828Y0152120D03*
X0014094Y0147412D03*
X0017346Y0144160D03*
X0019914Y0138511D03*
X0027103Y0134403D03*
X0035662Y0140394D03*
X0043622Y0144160D03*
X0047559Y0145016D03*
D86*
X0047559Y0144160D03*
X0043622Y0145016D03*
X0046874Y0148268D03*
X0046874Y0151521D03*
X0047559Y0155714D03*
X0044306Y0158967D03*
X0040369Y0158111D03*
X0037031Y0159052D03*
X0033865Y0164530D03*
X0037802Y0165471D03*
X0034549Y0168724D03*
X0029671Y0164787D03*
X0027103Y0164530D03*
X0023166Y0165471D03*
X0026418Y0168724D03*
X0013409Y0155714D03*
X0017860Y0152976D03*
X0019828Y0152633D03*
X0014094Y0151521D03*
X0014094Y0148268D03*
X0017432Y0147412D03*
X0017346Y0145016D03*
X0013409Y0144160D03*
X0022225Y0146043D03*
X0022225Y0146129D03*
X0027103Y0146129D03*
X0031725Y0140822D03*
X0037117Y0138511D03*
X0027103Y0135259D03*
X0023166Y0134403D03*
X0023851Y0138511D03*
D87*
X0028943Y0140565D03*
X0033907Y0134489D03*
X0023209Y0135173D03*
X0019101Y0149809D03*
X0019957Y0161363D03*
X0047516Y0144930D03*
D88*
X0043621Y0144246D03*
X0035662Y0140309D03*
X0027103Y0134489D03*
X0019914Y0138426D03*
X0020599Y0140908D03*
X0017346Y0144246D03*
X0021711Y0144759D03*
X0019058Y0149723D03*
X0017346Y0155543D03*
X0020599Y0158881D03*
X0019914Y0161449D03*
X0023851Y0162133D03*
X0029157Y0163503D03*
X0027103Y0165300D03*
X0033865Y0165300D03*
X0034549Y0167953D03*
X0037802Y0164701D03*
X0037716Y0157597D03*
X0043621Y0155543D03*
X0047558Y0154944D03*
X0023166Y0164701D03*
D89*
X0027103Y0164787D03*
X0033865Y0164787D03*
X0034549Y0168552D03*
X0026418Y0168552D03*
X0037117Y0161449D03*
X0040369Y0158282D03*
X0044306Y0158796D03*
X0043622Y0155030D03*
X0047559Y0155458D03*
X0046874Y0148097D03*
X0047559Y0144331D03*
X0037117Y0138340D03*
X0031725Y0140993D03*
X0031040Y0141678D03*
X0028387Y0141678D03*
X0028387Y0141764D03*
X0023851Y0138340D03*
X0023166Y0134574D03*
X0027103Y0135002D03*
X0037802Y0134574D03*
X0027189Y0145701D03*
X0027189Y0145786D03*
X0024793Y0145444D03*
X0024793Y0145358D03*
X0024793Y0145273D03*
X0024793Y0145187D03*
X0024707Y0145701D03*
X0024707Y0145786D03*
X0024707Y0145872D03*
X0018887Y0148953D03*
X0016063Y0151007D03*
X0014094Y0151777D03*
X0014094Y0148097D03*
X0013409Y0144331D03*
X0013409Y0155543D03*
X0017346Y0155030D03*
D90*
X0019828Y0152291D03*
X0014094Y0152291D03*
X0021797Y0145016D03*
X0021797Y0144930D03*
X0027103Y0134574D03*
X0041054Y0138340D03*
X0040369Y0141079D03*
X0043622Y0144331D03*
X0043622Y0155458D03*
X0047559Y0155030D03*
X0040369Y0158796D03*
X0041054Y0161534D03*
X0037802Y0164787D03*
X0029243Y0163674D03*
X0023166Y0164787D03*
D91*
X0026418Y0168467D03*
X0029500Y0164359D03*
X0033865Y0164872D03*
X0037117Y0161534D03*
X0037288Y0158539D03*
X0041054Y0161962D03*
X0044306Y0158710D03*
X0028558Y0146813D03*
X0017432Y0147584D03*
X0015891Y0150750D03*
X0037117Y0138255D03*
X0037802Y0134660D03*
D92*
X0033865Y0134660D03*
X0027103Y0134660D03*
X0028815Y0140822D03*
X0040369Y0141165D03*
X0041054Y0138255D03*
X0043622Y0144417D03*
X0047559Y0155115D03*
X0040369Y0158710D03*
X0037545Y0157940D03*
X0041054Y0161620D03*
X0037802Y0164872D03*
X0034464Y0168125D03*
X0023166Y0164872D03*
X0014094Y0152205D03*
X0015635Y0149809D03*
D93*
X0014950Y0149381D03*
X0015549Y0148696D03*
X0017518Y0146728D03*
X0017774Y0146471D03*
X0018630Y0145615D03*
X0019486Y0144759D03*
X0020427Y0143818D03*
X0020599Y0143647D03*
X0021455Y0142791D03*
X0021711Y0142534D03*
X0020599Y0142277D03*
X0022567Y0141678D03*
X0023423Y0140908D03*
X0023680Y0140565D03*
X0025648Y0138597D03*
X0026504Y0137741D03*
X0027360Y0136885D03*
X0027617Y0136628D03*
X0028473Y0135773D03*
X0029329Y0134917D03*
X0029585Y0134660D03*
X0019914Y0137142D03*
X0046874Y0151093D03*
X0023851Y0160850D03*
X0019914Y0162733D03*
X0030013Y0165642D03*
X0020599Y0157512D03*
X0017346Y0154345D03*
D94*
X0037759Y0134746D03*
D95*
X0033907Y0134746D03*
X0047516Y0144588D03*
X0015763Y0149467D03*
X0026461Y0168210D03*
D96*
X0034464Y0169152D03*
X0035320Y0138683D03*
X0034293Y0137656D03*
X0033351Y0136714D03*
X0033865Y0135687D03*
X0031383Y0134746D03*
X0027103Y0135687D03*
D97*
X0027531Y0136714D03*
X0026590Y0137656D03*
X0028558Y0135687D03*
X0029500Y0134746D03*
X0023594Y0140651D03*
X0021626Y0142620D03*
X0020684Y0143561D03*
X0018716Y0145530D03*
X0017689Y0146557D03*
X0024193Y0144588D03*
X0043622Y0145530D03*
D98*
X0025648Y0140651D03*
X0027103Y0134746D03*
D99*
X0023209Y0134746D03*
X0015763Y0150494D03*
D100*
X0014094Y0151093D03*
X0017175Y0148696D03*
X0017603Y0146642D03*
X0018544Y0145701D03*
X0020513Y0143732D03*
X0021540Y0142705D03*
X0022481Y0141764D03*
X0023509Y0140737D03*
X0026590Y0142020D03*
X0026590Y0145187D03*
X0026418Y0137827D03*
X0027446Y0136800D03*
X0028387Y0135858D03*
X0029414Y0134831D03*
X0041054Y0137142D03*
X0040369Y0142277D03*
X0043622Y0154345D03*
X0047559Y0156228D03*
X0044306Y0159480D03*
X0040369Y0157512D03*
X0041054Y0162733D03*
X0037802Y0165985D03*
X0023166Y0165985D03*
D101*
X0023166Y0165129D03*
X0023851Y0161705D03*
X0019914Y0161877D03*
X0027103Y0164958D03*
X0029414Y0164188D03*
X0034549Y0168381D03*
X0043621Y0155201D03*
X0046874Y0151949D03*
X0047558Y0144502D03*
X0035662Y0139881D03*
X0029756Y0142791D03*
X0025648Y0140565D03*
X0023851Y0138169D03*
X0019914Y0137998D03*
X0027103Y0134831D03*
X0024707Y0146300D03*
X0024707Y0146385D03*
X0018887Y0149210D03*
X0015806Y0150579D03*
X0014094Y0151949D03*
X0017346Y0155201D03*
X0031382Y0152377D03*
D102*
X0015677Y0149723D03*
X0015677Y0149638D03*
X0025520Y0141507D03*
X0025520Y0141421D03*
X0025520Y0141336D03*
X0025520Y0141250D03*
X0025520Y0141165D03*
X0028772Y0140908D03*
X0037759Y0134917D03*
D103*
X0027103Y0134917D03*
X0023851Y0138255D03*
X0025648Y0140480D03*
X0029756Y0142876D03*
X0024707Y0146043D03*
X0024707Y0146129D03*
X0024707Y0146214D03*
X0022139Y0145615D03*
X0017346Y0144674D03*
X0014094Y0148012D03*
X0018887Y0149039D03*
X0015977Y0150836D03*
X0014094Y0151863D03*
X0017346Y0155115D03*
X0019914Y0161962D03*
X0023851Y0161620D03*
X0027103Y0164872D03*
X0034549Y0168467D03*
X0043621Y0155115D03*
X0046874Y0151863D03*
X0046874Y0148012D03*
X0047558Y0144417D03*
X0043621Y0144674D03*
D104*
X0047516Y0144759D03*
X0046917Y0147584D03*
X0044264Y0158282D03*
X0037588Y0157854D03*
X0037160Y0161962D03*
X0029286Y0163760D03*
X0016705Y0158282D03*
X0013452Y0155115D03*
X0015506Y0149980D03*
X0014051Y0147584D03*
X0013452Y0144759D03*
X0019015Y0149552D03*
X0021155Y0144331D03*
X0020642Y0141079D03*
X0023808Y0137827D03*
X0023209Y0135002D03*
X0028858Y0140737D03*
X0037160Y0137827D03*
X0037759Y0135002D03*
D105*
X0037759Y0135088D03*
D106*
X0033907Y0135088D03*
X0025691Y0140309D03*
X0029970Y0143133D03*
X0027146Y0145615D03*
X0027146Y0145872D03*
X0024750Y0145615D03*
X0022182Y0145872D03*
X0017304Y0144845D03*
X0016876Y0148097D03*
X0016704Y0140993D03*
X0019957Y0137741D03*
X0044263Y0140993D03*
X0046831Y0151692D03*
X0037160Y0158710D03*
X0023894Y0161449D03*
X0019957Y0162133D03*
X0016704Y0158881D03*
X0017304Y0154944D03*
D107*
X0017346Y0154602D03*
X0020599Y0157940D03*
X0023851Y0161192D03*
X0019914Y0162390D03*
X0023166Y0165642D03*
X0029756Y0165129D03*
X0029756Y0165043D03*
X0034549Y0168895D03*
X0043621Y0154602D03*
X0047558Y0155886D03*
X0043621Y0145187D03*
X0035662Y0139367D03*
X0027103Y0135430D03*
X0019914Y0137484D03*
X0026247Y0141849D03*
X0017346Y0145187D03*
X0016405Y0148268D03*
X0014094Y0148440D03*
X0016833Y0152120D03*
X0016918Y0152205D03*
D108*
X0014094Y0147156D03*
X0021369Y0144502D03*
X0028986Y0140138D03*
X0023166Y0135516D03*
X0037117Y0137399D03*
X0037802Y0135516D03*
X0047559Y0145273D03*
X0044306Y0157854D03*
X0040369Y0159223D03*
X0037117Y0162390D03*
X0034549Y0167611D03*
X0027103Y0165728D03*
X0026418Y0167611D03*
D109*
X0026419Y0169066D03*
X0023166Y0165814D03*
X0019914Y0162561D03*
X0023851Y0161021D03*
X0020599Y0157768D03*
X0014094Y0151264D03*
X0015977Y0148440D03*
X0016747Y0149039D03*
X0016833Y0148953D03*
X0017346Y0145358D03*
X0020599Y0142106D03*
X0023166Y0141336D03*
X0024964Y0139538D03*
X0026419Y0141935D03*
X0028473Y0137228D03*
X0027103Y0135601D03*
X0019914Y0137313D03*
X0035662Y0139196D03*
X0040369Y0142106D03*
X0043621Y0145358D03*
X0046874Y0151264D03*
X0047558Y0156057D03*
X0040369Y0157768D03*
X0036689Y0159737D03*
X0037802Y0165814D03*
X0029842Y0165300D03*
D110*
X0037802Y0135687D03*
D111*
X0032281Y0135687D03*
D112*
X0023209Y0135687D03*
D113*
X0037759Y0135773D03*
D114*
X0033907Y0135858D03*
X0024322Y0139881D03*
X0024065Y0140138D03*
X0023894Y0140309D03*
X0019957Y0136971D03*
X0015164Y0149039D03*
X0014051Y0148867D03*
X0027146Y0164016D03*
X0047516Y0156314D03*
D115*
X0047173Y0153575D03*
X0040412Y0159823D03*
X0037160Y0162989D03*
X0034506Y0167012D03*
X0034506Y0167097D03*
X0023551Y0163332D03*
X0025948Y0159395D03*
X0026632Y0148782D03*
X0013452Y0145786D03*
X0023808Y0136800D03*
X0037160Y0136800D03*
X0037759Y0136029D03*
X0040412Y0140052D03*
D116*
X0040412Y0142534D03*
X0043664Y0145786D03*
X0043664Y0154003D03*
X0047601Y0156485D03*
X0014137Y0150750D03*
X0027060Y0136029D03*
D117*
X0023808Y0136714D03*
X0020214Y0139624D03*
X0037160Y0136714D03*
X0040755Y0139624D03*
X0047002Y0153404D03*
X0020042Y0160336D03*
X0013966Y0153404D03*
D118*
X0028430Y0136714D03*
D119*
X0041011Y0136885D03*
X0043664Y0145701D03*
X0037160Y0160593D03*
X0041011Y0162989D03*
X0037759Y0166156D03*
X0030142Y0165985D03*
D120*
X0030056Y0165814D03*
X0037160Y0160678D03*
X0036475Y0160251D03*
X0046917Y0148867D03*
X0040412Y0142448D03*
X0044264Y0140223D03*
X0041011Y0136971D03*
X0028430Y0136885D03*
X0024236Y0139966D03*
X0024151Y0140052D03*
X0023979Y0140223D03*
X0020556Y0142448D03*
X0026461Y0145102D03*
X0016705Y0140223D03*
X0015249Y0148953D03*
X0015078Y0149124D03*
X0014993Y0149210D03*
X0016705Y0159651D03*
D121*
X0026418Y0167354D03*
X0041054Y0160850D03*
X0040369Y0159395D03*
X0044306Y0157597D03*
X0041054Y0139025D03*
X0037117Y0137142D03*
D122*
X0041054Y0137313D03*
X0041054Y0162561D03*
D123*
X0037117Y0162476D03*
X0037117Y0137313D03*
D124*
X0023851Y0137399D03*
X0013409Y0145273D03*
X0019315Y0150408D03*
X0016662Y0157854D03*
X0020599Y0159223D03*
X0046874Y0147156D03*
D125*
X0041054Y0137484D03*
X0029243Y0146043D03*
X0027018Y0146300D03*
X0017432Y0147241D03*
X0017004Y0152291D03*
X0019828Y0152719D03*
X0036860Y0159395D03*
X0040369Y0157940D03*
X0044306Y0159138D03*
X0041054Y0162390D03*
X0037802Y0165642D03*
X0033865Y0164359D03*
X0026418Y0168895D03*
D126*
X0020599Y0159138D03*
X0013409Y0145187D03*
X0023851Y0137484D03*
X0028473Y0138597D03*
X0046874Y0147241D03*
D127*
X0037117Y0137570D03*
X0021369Y0144417D03*
D128*
X0016319Y0151435D03*
X0040968Y0137656D03*
D129*
X0037117Y0137656D03*
X0023851Y0137656D03*
D130*
X0028430Y0137656D03*
X0035705Y0139624D03*
D131*
X0028858Y0146557D03*
X0019957Y0137656D03*
D132*
X0019957Y0137827D03*
X0020813Y0144246D03*
X0017304Y0144759D03*
X0024750Y0145957D03*
X0028687Y0146728D03*
X0029799Y0142962D03*
X0035705Y0139710D03*
X0046831Y0151777D03*
X0023894Y0161534D03*
X0019957Y0162048D03*
X0016020Y0150922D03*
D133*
X0017432Y0147669D03*
X0025734Y0141678D03*
X0028558Y0141421D03*
X0037117Y0138169D03*
X0041054Y0137998D03*
X0044306Y0158624D03*
X0041054Y0161877D03*
X0037802Y0165129D03*
X0033865Y0164958D03*
X0026418Y0168381D03*
D134*
X0026418Y0168296D03*
X0027103Y0165043D03*
X0029414Y0164102D03*
X0033865Y0165043D03*
X0034549Y0168296D03*
X0037802Y0165043D03*
X0041054Y0161791D03*
X0040369Y0158453D03*
X0037374Y0158282D03*
X0043622Y0155286D03*
X0047559Y0155286D03*
X0046874Y0152034D03*
X0044306Y0158539D03*
X0023851Y0161791D03*
X0019914Y0161791D03*
X0023166Y0165043D03*
X0017346Y0155286D03*
X0014094Y0152034D03*
X0015720Y0150408D03*
X0024707Y0146471D03*
X0021968Y0145444D03*
X0028387Y0146899D03*
X0028644Y0141250D03*
X0035662Y0139966D03*
X0041054Y0138083D03*
X0019914Y0138083D03*
D135*
X0041054Y0138169D03*
X0041054Y0161705D03*
D136*
X0026504Y0168125D03*
X0023851Y0161962D03*
X0019914Y0161620D03*
X0020599Y0158710D03*
X0015549Y0150066D03*
X0015549Y0149894D03*
X0017346Y0144417D03*
X0021882Y0145102D03*
X0021882Y0145187D03*
X0020599Y0141165D03*
X0019914Y0138255D03*
X0028473Y0138169D03*
X0035662Y0140138D03*
X0046874Y0152205D03*
D137*
X0046874Y0152291D03*
X0037630Y0157768D03*
X0023851Y0162048D03*
X0019914Y0161534D03*
X0020599Y0158796D03*
X0017346Y0155458D03*
X0019058Y0149638D03*
X0017346Y0144331D03*
X0020599Y0140993D03*
X0019914Y0138340D03*
X0028473Y0138255D03*
X0035662Y0140223D03*
D138*
X0041054Y0138426D03*
X0019828Y0152205D03*
X0013495Y0154944D03*
X0026418Y0167953D03*
X0037117Y0162133D03*
X0041054Y0161449D03*
X0040369Y0158881D03*
X0044306Y0158196D03*
D139*
X0040412Y0140651D03*
X0041011Y0138683D03*
X0019957Y0138683D03*
D140*
X0016705Y0140651D03*
X0022952Y0141593D03*
X0023808Y0138683D03*
X0037160Y0138683D03*
X0044264Y0140651D03*
D141*
X0028473Y0138683D03*
X0047558Y0154431D03*
D142*
X0026461Y0169152D03*
X0024664Y0139624D03*
X0025605Y0138683D03*
D143*
X0028473Y0138768D03*
X0020599Y0140480D03*
X0016662Y0157683D03*
D144*
X0025563Y0151606D03*
X0026418Y0148354D03*
X0027874Y0138854D03*
X0028387Y0161534D03*
D145*
X0028344Y0161449D03*
X0025777Y0158881D03*
X0025520Y0151692D03*
X0027916Y0138939D03*
D146*
X0027873Y0139025D03*
X0026419Y0148268D03*
X0025477Y0151777D03*
X0025734Y0158796D03*
X0028301Y0161363D03*
D147*
X0027103Y0166070D03*
X0033865Y0166070D03*
X0037802Y0164016D03*
X0041054Y0160764D03*
X0040369Y0159480D03*
X0044306Y0157512D03*
X0047559Y0154259D03*
X0040369Y0140309D03*
X0041054Y0139110D03*
X0028986Y0139795D03*
X0019828Y0151264D03*
X0014094Y0153061D03*
X0013495Y0154259D03*
X0023166Y0164016D03*
D148*
X0025306Y0151949D03*
X0026333Y0148097D03*
X0027874Y0139110D03*
D149*
X0020599Y0140309D03*
X0019914Y0139110D03*
X0035662Y0140993D03*
X0026504Y0150151D03*
X0017346Y0156314D03*
X0016662Y0157512D03*
X0020599Y0159480D03*
X0019914Y0160764D03*
X0023851Y0162818D03*
X0026076Y0159737D03*
X0046874Y0153061D03*
D150*
X0047559Y0154174D03*
X0040369Y0159566D03*
X0041054Y0160678D03*
X0037802Y0163931D03*
X0033865Y0166156D03*
X0027103Y0166156D03*
X0028644Y0162219D03*
X0025991Y0159566D03*
X0023166Y0163931D03*
X0013495Y0154174D03*
X0014094Y0153147D03*
X0026333Y0150408D03*
X0026675Y0149039D03*
X0028986Y0139710D03*
X0040369Y0140223D03*
X0041054Y0139196D03*
X0043622Y0143475D03*
D151*
X0027873Y0139196D03*
X0025135Y0152291D03*
X0025648Y0158539D03*
X0028216Y0161106D03*
X0028216Y0161192D03*
D152*
X0023851Y0162904D03*
X0019914Y0160678D03*
X0020599Y0159651D03*
X0046874Y0153147D03*
X0035662Y0141079D03*
X0020599Y0140223D03*
X0019914Y0139196D03*
X0017346Y0143475D03*
D153*
X0013495Y0154088D03*
X0041054Y0160593D03*
X0041054Y0139282D03*
D154*
X0037117Y0139282D03*
D155*
X0035662Y0141849D03*
X0027873Y0139282D03*
X0026247Y0147755D03*
D156*
X0027831Y0139367D03*
D157*
X0031725Y0139966D03*
X0023851Y0139367D03*
X0013409Y0143304D03*
X0017346Y0154003D03*
X0030184Y0166156D03*
X0046874Y0149124D03*
D158*
X0027831Y0139453D03*
X0028087Y0160764D03*
D159*
X0029585Y0164530D03*
X0018202Y0153147D03*
X0022139Y0145786D03*
X0025648Y0140394D03*
X0030869Y0141849D03*
D160*
X0035705Y0140651D03*
X0021326Y0144588D03*
X0019357Y0150494D03*
D161*
X0031725Y0140651D03*
D162*
X0028858Y0140651D03*
D163*
X0020599Y0140651D03*
D164*
X0014008Y0146471D03*
X0025905Y0151093D03*
X0028473Y0161791D03*
X0035662Y0141336D03*
D165*
X0035662Y0141421D03*
X0026504Y0148440D03*
X0025819Y0151264D03*
X0025819Y0159052D03*
D166*
X0035705Y0141507D03*
D167*
X0031126Y0141593D03*
X0024793Y0145530D03*
X0040369Y0141593D03*
D168*
X0035705Y0141593D03*
X0028259Y0161278D03*
D169*
X0028473Y0141593D03*
D170*
X0025520Y0141593D03*
X0018930Y0149467D03*
D171*
X0020599Y0141593D03*
D172*
X0016747Y0141593D03*
D173*
X0026290Y0148012D03*
X0025178Y0152205D03*
X0035705Y0141678D03*
D174*
X0035705Y0141764D03*
X0026290Y0147840D03*
X0026290Y0147926D03*
X0025605Y0158453D03*
X0028173Y0161021D03*
D175*
X0027360Y0160079D03*
X0025563Y0158282D03*
X0035662Y0141935D03*
D176*
X0035662Y0142020D03*
X0024792Y0152633D03*
X0028045Y0160678D03*
D177*
X0026076Y0147412D03*
X0035662Y0142106D03*
D178*
X0035662Y0142192D03*
X0026076Y0147327D03*
X0025392Y0157854D03*
D179*
X0027873Y0160251D03*
X0035662Y0142277D03*
D180*
X0035662Y0142363D03*
X0025991Y0147070D03*
X0024365Y0153061D03*
X0025306Y0157597D03*
X0036432Y0156827D03*
D181*
X0035705Y0142448D03*
D182*
X0035705Y0142534D03*
D183*
X0044221Y0142620D03*
D184*
X0035705Y0142620D03*
D185*
X0029714Y0142620D03*
X0043579Y0155372D03*
X0044263Y0158368D03*
X0016704Y0158368D03*
D186*
X0036817Y0156057D03*
X0035705Y0142705D03*
D187*
X0035705Y0142791D03*
D188*
X0035662Y0142876D03*
X0036946Y0155800D03*
X0025049Y0156827D03*
D189*
X0024964Y0156656D03*
X0037031Y0155629D03*
X0035662Y0142962D03*
D190*
X0035662Y0143047D03*
D191*
X0035662Y0143133D03*
D192*
X0034592Y0143219D03*
X0024322Y0154687D03*
D193*
X0038358Y0152976D03*
X0034678Y0143304D03*
D194*
X0034720Y0143390D03*
X0038401Y0152890D03*
X0024279Y0154602D03*
D195*
X0024236Y0154516D03*
X0038443Y0152804D03*
X0034763Y0143475D03*
D196*
X0047473Y0143561D03*
D197*
X0043622Y0143561D03*
D198*
X0034892Y0143561D03*
D199*
X0017304Y0143561D03*
X0013452Y0145530D03*
D200*
X0013495Y0143561D03*
D201*
X0034977Y0143647D03*
X0038486Y0152719D03*
D202*
X0038529Y0152633D03*
X0035105Y0143903D03*
X0035020Y0143818D03*
X0035020Y0143732D03*
D203*
X0035148Y0143989D03*
D204*
X0035191Y0144075D03*
D205*
X0035234Y0144160D03*
D206*
X0035277Y0144246D03*
D207*
X0035319Y0144331D03*
D208*
X0035362Y0144417D03*
D209*
X0035448Y0144502D03*
D210*
X0043621Y0144588D03*
X0037374Y0158368D03*
X0020599Y0158368D03*
X0017346Y0144588D03*
D211*
X0035491Y0144588D03*
D212*
X0013452Y0144588D03*
X0034506Y0168210D03*
D213*
X0035491Y0144674D03*
D214*
X0035534Y0144759D03*
X0035534Y0144845D03*
D215*
X0035576Y0144930D03*
D216*
X0035576Y0145016D03*
D217*
X0035619Y0145102D03*
D218*
X0035619Y0145187D03*
X0036646Y0146214D03*
D219*
X0035662Y0145273D03*
D220*
X0035705Y0145358D03*
X0036732Y0146385D03*
D221*
X0035705Y0145444D03*
D222*
X0047558Y0145530D03*
D223*
X0035790Y0145530D03*
D224*
X0027060Y0145530D03*
D225*
X0022054Y0145530D03*
X0019828Y0152462D03*
X0040369Y0158368D03*
D226*
X0017346Y0145530D03*
D227*
X0035790Y0145615D03*
D228*
X0035790Y0145701D03*
X0037074Y0147070D03*
D229*
X0035747Y0145786D03*
D230*
X0036475Y0145872D03*
D231*
X0036518Y0145957D03*
D232*
X0036561Y0146043D03*
D233*
X0036604Y0146129D03*
D234*
X0036689Y0146300D03*
D235*
X0036818Y0146471D03*
D236*
X0028901Y0146471D03*
X0020599Y0158111D03*
D237*
X0036860Y0146557D03*
D238*
X0026889Y0149467D03*
X0023979Y0146557D03*
X0013452Y0154431D03*
D239*
X0036903Y0146642D03*
D240*
X0036946Y0146728D03*
X0036946Y0146813D03*
D241*
X0036989Y0146899D03*
D242*
X0037031Y0146984D03*
D243*
X0025948Y0146984D03*
X0025263Y0157512D03*
X0036475Y0156741D03*
D244*
X0037117Y0147156D03*
D245*
X0026033Y0147156D03*
X0026033Y0147241D03*
X0025349Y0157768D03*
D246*
X0037160Y0147241D03*
D247*
X0037203Y0147327D03*
D248*
X0037245Y0147412D03*
D249*
X0046917Y0147498D03*
D250*
X0037331Y0147498D03*
D251*
X0026162Y0147498D03*
D252*
X0017389Y0147498D03*
D253*
X0014051Y0147498D03*
D254*
X0037374Y0147584D03*
X0037459Y0152205D03*
D255*
X0026205Y0147584D03*
X0024835Y0152548D03*
X0025520Y0158196D03*
D256*
X0037502Y0152120D03*
X0037417Y0147755D03*
X0037417Y0147669D03*
D257*
X0026205Y0147669D03*
X0028088Y0160850D03*
D258*
X0037459Y0147840D03*
D259*
X0014051Y0147840D03*
D260*
X0037502Y0147926D03*
X0037588Y0151949D03*
D261*
X0037545Y0148012D03*
D262*
X0037588Y0148097D03*
X0037673Y0151777D03*
D263*
X0037716Y0151692D03*
X0037630Y0148183D03*
D264*
X0026376Y0148183D03*
X0036903Y0157084D03*
D265*
X0037673Y0148268D03*
D266*
X0037716Y0148354D03*
X0037802Y0151521D03*
D267*
X0020599Y0157854D03*
X0016662Y0149124D03*
X0016234Y0148354D03*
D268*
X0037802Y0148440D03*
D269*
X0037844Y0148525D03*
D270*
X0026547Y0148525D03*
D271*
X0018844Y0148525D03*
D272*
X0015806Y0148525D03*
D273*
X0037887Y0148611D03*
D274*
X0037930Y0148696D03*
X0037930Y0148782D03*
X0038016Y0151093D03*
D275*
X0037973Y0148867D03*
D276*
X0038016Y0148953D03*
X0038101Y0150922D03*
D277*
X0038144Y0150836D03*
X0038058Y0149039D03*
D278*
X0038101Y0149124D03*
D279*
X0026718Y0149124D03*
D280*
X0038144Y0149210D03*
X0038230Y0150665D03*
D281*
X0038272Y0150579D03*
X0038187Y0149295D03*
D282*
X0038230Y0149381D03*
D283*
X0038315Y0149467D03*
D284*
X0038358Y0149552D03*
X0038358Y0150322D03*
D285*
X0038401Y0150237D03*
X0038401Y0149723D03*
X0038401Y0149638D03*
D286*
X0038443Y0149809D03*
X0038443Y0150151D03*
D287*
X0038486Y0150066D03*
X0038486Y0149894D03*
D288*
X0038529Y0149980D03*
D289*
X0038315Y0150408D03*
D290*
X0038272Y0150494D03*
D291*
X0044263Y0157341D03*
X0026290Y0150494D03*
X0017304Y0156399D03*
X0016704Y0157341D03*
D292*
X0038187Y0150750D03*
D293*
X0038058Y0151007D03*
D294*
X0037973Y0151178D03*
D295*
X0025862Y0151178D03*
X0025777Y0151349D03*
X0025862Y0159138D03*
X0025862Y0159223D03*
X0028430Y0161705D03*
D296*
X0037930Y0151349D03*
X0037930Y0151264D03*
D297*
X0046917Y0151435D03*
X0036903Y0159309D03*
X0041011Y0162305D03*
X0019957Y0162305D03*
X0017218Y0152462D03*
X0014051Y0151435D03*
D298*
X0037844Y0151435D03*
D299*
X0025691Y0151435D03*
D300*
X0019914Y0151435D03*
X0028644Y0162305D03*
D301*
X0025777Y0158967D03*
X0025605Y0151521D03*
D302*
X0037759Y0151606D03*
D303*
X0037630Y0151863D03*
D304*
X0025349Y0151863D03*
X0025691Y0158710D03*
D305*
X0037545Y0152034D03*
D306*
X0025263Y0152034D03*
X0025263Y0152120D03*
X0025691Y0158624D03*
D307*
X0037417Y0152291D03*
D308*
X0038657Y0152377D03*
D309*
X0025049Y0152377D03*
X0028130Y0160935D03*
D310*
X0029072Y0163246D03*
X0014094Y0152462D03*
X0046874Y0152462D03*
D311*
X0038615Y0152462D03*
D312*
X0024921Y0152462D03*
D313*
X0038572Y0152548D03*
D314*
X0024664Y0152719D03*
X0025520Y0158111D03*
D315*
X0025477Y0158025D03*
X0027959Y0160507D03*
X0024621Y0152804D03*
D316*
X0024579Y0152890D03*
X0025434Y0157940D03*
X0036475Y0156998D03*
D317*
X0024450Y0152976D03*
D318*
X0038315Y0153061D03*
D319*
X0038272Y0153147D03*
X0024322Y0154773D03*
D320*
X0024193Y0153147D03*
D321*
X0038230Y0153232D03*
X0038230Y0153318D03*
D322*
X0038101Y0153489D03*
X0022610Y0153318D03*
X0022610Y0153232D03*
D323*
X0038144Y0153404D03*
D324*
X0022695Y0153404D03*
D325*
X0022738Y0153489D03*
X0037973Y0153746D03*
D326*
X0038058Y0153575D03*
X0024450Y0155115D03*
D327*
X0022738Y0153575D03*
X0037887Y0153917D03*
D328*
X0038016Y0153660D03*
D329*
X0037844Y0154003D03*
X0024578Y0155458D03*
X0022781Y0153660D03*
D330*
X0022824Y0153746D03*
D331*
X0037930Y0153831D03*
D332*
X0037759Y0154174D03*
X0022867Y0153831D03*
D333*
X0022867Y0153917D03*
X0024664Y0155714D03*
D334*
X0024707Y0155800D03*
X0022910Y0154003D03*
D335*
X0024621Y0155543D03*
X0037802Y0154088D03*
D336*
X0022952Y0154088D03*
D337*
X0022952Y0154174D03*
X0037502Y0154687D03*
D338*
X0037716Y0154259D03*
X0024621Y0155629D03*
D339*
X0024792Y0156057D03*
X0022995Y0154259D03*
X0037459Y0154773D03*
D340*
X0037673Y0154345D03*
D341*
X0037417Y0154859D03*
X0023038Y0154345D03*
D342*
X0017346Y0154431D03*
X0043621Y0154431D03*
D343*
X0037630Y0154431D03*
D344*
X0024193Y0154431D03*
D345*
X0037588Y0154516D03*
D346*
X0037545Y0154602D03*
X0024707Y0155886D03*
D347*
X0024364Y0154859D03*
D348*
X0024792Y0156142D03*
X0037374Y0154944D03*
D349*
X0024407Y0154944D03*
D350*
X0024835Y0156228D03*
X0037331Y0155030D03*
D351*
X0024450Y0155030D03*
D352*
X0024878Y0156314D03*
X0037288Y0155115D03*
D353*
X0037245Y0155201D03*
X0037245Y0155286D03*
D354*
X0024493Y0155286D03*
X0024493Y0155201D03*
D355*
X0013452Y0155372D03*
X0047516Y0155372D03*
D356*
X0037160Y0155372D03*
D357*
X0024536Y0155372D03*
D358*
X0017346Y0155372D03*
D359*
X0037117Y0155458D03*
D360*
X0037074Y0155543D03*
X0024921Y0156570D03*
D361*
X0025006Y0156741D03*
X0036989Y0155714D03*
D362*
X0036903Y0155886D03*
D363*
X0036860Y0155971D03*
X0025049Y0156913D03*
D364*
X0024750Y0155971D03*
D365*
X0025135Y0157084D03*
X0036775Y0156142D03*
D366*
X0036732Y0156228D03*
D367*
X0036689Y0156314D03*
X0025135Y0157169D03*
X0025135Y0157255D03*
D368*
X0020599Y0157341D03*
X0047558Y0156399D03*
D369*
X0043621Y0156399D03*
D370*
X0036646Y0156399D03*
D371*
X0024878Y0156399D03*
D372*
X0013452Y0156399D03*
X0040412Y0157341D03*
D373*
X0036603Y0156485D03*
D374*
X0024921Y0156485D03*
D375*
X0036561Y0156570D03*
D376*
X0036518Y0156656D03*
X0025220Y0157426D03*
D377*
X0025349Y0157683D03*
X0036390Y0156913D03*
D378*
X0025092Y0156998D03*
D379*
X0019957Y0161278D03*
X0037844Y0157341D03*
D380*
X0025220Y0157341D03*
D381*
X0020599Y0158967D03*
X0016662Y0158111D03*
D382*
X0025605Y0158368D03*
D383*
X0037331Y0158453D03*
D384*
X0020599Y0158453D03*
D385*
X0016704Y0159309D03*
X0044263Y0159309D03*
D386*
X0040326Y0159309D03*
X0020556Y0159309D03*
D387*
X0025905Y0159309D03*
X0023680Y0163246D03*
X0027103Y0166242D03*
X0033865Y0166242D03*
X0037288Y0163246D03*
D388*
X0036561Y0159994D03*
D389*
X0027831Y0160165D03*
D390*
X0040926Y0160336D03*
D391*
X0036389Y0160336D03*
D392*
X0027916Y0160336D03*
D393*
X0027959Y0160422D03*
D394*
X0028002Y0160593D03*
D395*
X0041054Y0161278D03*
D396*
X0037117Y0161278D03*
D397*
X0023851Y0161278D03*
D398*
X0028387Y0161620D03*
D399*
X0037117Y0162305D03*
D400*
X0023894Y0162305D03*
D401*
X0023166Y0164273D03*
X0037802Y0164273D03*
D402*
X0033865Y0164273D03*
X0029842Y0165215D03*
D403*
X0029457Y0164273D03*
D404*
X0037759Y0165215D03*
D405*
X0033865Y0165215D03*
X0027103Y0165215D03*
D406*
X0023209Y0165215D03*
D407*
X0023166Y0166242D03*
X0037802Y0166242D03*
D408*
X0034506Y0167183D03*
X0026461Y0167183D03*
M02*
